<?xml version="1.0" standalone="no"?>
<!DOCTYPE svg PUBLIC "-//W3C//DTD SVG 20010904//EN"
 "http://www.w3.org/TR/2001/REC-SVG-20010904/DTD/svg10.dtd">
<svg version="1.0" xmlns="http://www.w3.org/2000/svg"
 width="287.000000pt" height="287.000000pt" viewBox="0 0 287.000000 287.000000"
 preserveAspectRatio="xMidYMid meet">
<metadata>
Created by potrace 1.11, written by Peter Selinger 2001-2013
</metadata>
<g transform="translate(0.000000,287.000000) scale(0.100000,-0.100000)"
fill="#000000" stroke="none">
<path d="M0 1435 l0 -1435 1435 0 1435 0 0 1435 0 1435 -1435 0 -1435 0 0
-1435z m630 1261 c0 -6 5 -5 12 2 14 14 52 16 43 3 -3 -5 0 -11 7 -14 7 -2 3
-2 -9 -1 -12 2 -25 -1 -29 -8 -5 -7 -3 -8 7 -3 8 5 6 -1 -4 -13 -18 -20 -18
-20 1 -15 13 3 25 -3 36 -18 20 -29 21 -45 1 -29 -8 7 -22 10 -30 6 -17 -6
-21 -36 -5 -36 14 0 12 -28 -2 -32 -7 -3 -13 -13 -13 -24 0 -10 -6 -18 -13
-16 -8 1 -11 -2 -7 -8 4 -6 4 -19 0 -28 -6 -16 -7 -16 -16 0 -15 26 -71 51
-81 36 -4 -8 -2 -14 6 -16 8 -2 19 -16 24 -32 8 -22 7 -32 -4 -41 -12 -10 -12
-14 -2 -20 21 -14 25 -11 64 31 26 28 43 39 56 35 9 -4 26 -1 35 5 16 10 15
11 -4 7 -28 -6 -30 9 -4 23 11 5 23 19 26 30 3 11 13 20 21 20 8 0 23 9 34 20
11 11 20 18 20 15 0 -2 16 5 36 16 28 15 39 17 44 8 5 -8 10 -5 14 9 4 11 21
26 39 33 18 7 35 14 40 17 4 2 4 -3 1 -12 -3 -9 -16 -17 -28 -17 -18 -1 -18
-2 -2 -6 23 -6 35 6 42 43 6 35 13 42 23 25 7 -10 13 -11 30 -2 11 7 21 9 21
5 0 -3 6 -2 13 5 9 7 78 11 195 10 154 0 182 -2 182 -14 0 -19 8 -19 26 0 10
10 35 15 71 15 49 0 55 -2 51 -18 -4 -15 -1 -18 19 -14 13 2 26 9 29 14 4 6
-2 8 -15 3 -12 -4 -21 -2 -21 4 0 12 20 14 44 5 21 -8 20 -24 -1 -40 -16 -12
-16 -13 -2 -14 9 0 20 7 23 16 3 9 11 12 18 8 10 -6 11 -4 1 7 -7 7 -13 15
-13 18 0 4 40 7 90 9 76 2 89 0 84 -13 -4 -8 -12 -15 -20 -15 -30 0 -12 -27
38 -57 39 -24 55 -30 65 -21 10 8 13 6 13 -6 0 -9 8 -16 20 -16 11 0 20 4 20
10 0 6 9 6 25 0 19 -7 25 -6 25 5 0 7 -9 17 -20 20 -27 8 -28 55 -2 55 23 0
47 -42 39 -69 -3 -14 -1 -18 10 -14 9 4 23 -3 33 -18 15 -18 26 -23 57 -21 46
3 61 16 44 36 -13 15 1 32 18 22 5 -4 7 3 4 14 -5 17 -7 18 -20 4 -16 -16 -23
-9 -49 46 -4 8 -12 19 -18 23 -7 6 -4 7 7 3 9 -3 17 -2 17 3 0 7 65 8 80 1 3
-1 9 -2 13 -1 5 1 5 -4 1 -10 -5 -9 -2 -10 10 -6 13 5 19 1 23 -13 7 -25 23
-26 24 -2 0 14 2 14 9 -3 7 -16 9 -16 9 -4 1 24 27 31 72 19 49 -13 66 -36 20
-27 -29 6 -31 5 -21 -13 8 -16 8 -18 -5 -14 -8 4 -17 -1 -21 -10 -5 -14 -9
-14 -34 -1 -15 8 -31 11 -35 7 -5 -4 -5 -1 -1 6 4 6 5 12 2 12 -2 0 -11 3 -19
6 -8 3 -17 -2 -20 -10 -4 -9 -1 -15 5 -13 6 1 13 -4 15 -11 3 -8 -2 -10 -14
-6 -16 5 -16 4 2 -11 16 -13 17 -17 6 -24 -9 -6 -19 -4 -28 5 -18 18 -33 18
-33 0 0 -8 -3 -21 -6 -30 -10 -26 82 -22 96 4 7 14 7 20 0 20 -17 0 -11 19 10
30 16 9 20 8 20 -6 0 -11 -5 -14 -17 -9 -14 5 -15 4 -6 -6 7 -6 10 -24 7 -38
-7 -32 21 -67 54 -67 16 0 22 6 22 23 0 13 5 23 12 23 6 0 3 7 -8 15 -18 14
-18 14 5 10 14 -3 30 0 38 6 10 9 13 7 13 -9 0 -12 7 -25 16 -30 14 -8 14 -12
3 -30 -8 -12 -17 -22 -21 -22 -13 0 -9 28 4 33 10 3 9 9 -4 22 -16 17 -17 17
-11 -3 3 -12 1 -22 -5 -22 -6 0 -9 -8 -7 -19 3 -15 -1 -18 -18 -15 -12 2 -16
2 -9 -2 6 -3 12 -12 12 -19 0 -9 17 -13 60 -12 48 0 60 4 55 15 -3 7 -5 20 -5
28 0 9 -4 13 -9 10 -4 -3 -13 6 -19 19 -10 21 -8 26 8 35 22 12 33 0 24 -24
-3 -9 -3 -16 0 -16 4 0 11 12 16 26 15 39 30 19 30 -40 0 -47 3 -54 23 -60 18
-5 20 -8 7 -16 -8 -5 -10 -10 -5 -10 6 0 3 -5 -5 -10 -13 -8 -12 -10 3 -10 10
0 17 -7 17 -17 0 -10 -4 -14 -8 -8 -4 6 -14 11 -23 11 -22 2 -13 -33 10 -39
13 -3 18 -16 19 -50 2 -41 0 -45 -18 -40 -11 3 -20 14 -20 25 0 10 -5 16 -10
13 -6 -4 -8 -10 -6 -14 3 -4 1 -13 -4 -20 -10 -16 -30 -6 -30 16 0 13 3 13 15
3 14 -11 14 -10 6 13 -9 22 -8 25 7 20 18 -7 19 -8 -35 55 -26 31 -31 33 -54
22 -19 -9 -25 -18 -22 -31 3 -12 0 -19 -8 -19 -11 0 -11 -2 1 -10 8 -5 11 -10
6 -10 -5 0 -17 7 -27 16 -11 10 -19 12 -24 5 -3 -6 -1 -11 5 -11 6 0 9 -4 6
-9 -6 -9 49 -27 67 -23 4 1 10 -5 13 -13 4 -8 12 -15 20 -15 8 0 14 -5 14 -11
0 -6 -10 -8 -22 -5 -13 3 -17 3 -10 0 6 -3 10 -10 7 -15 -4 -5 2 -6 12 -2 14
5 16 3 6 -7 -9 -9 -16 -10 -25 -3 -10 8 -17 5 -30 -12 -17 -22 -17 -23 9 -30
14 -3 31 -1 36 4 6 6 8 11 4 11 -18 0 31 36 51 37 17 1 22 -4 22 -23 0 -23 1
-24 16 -10 8 9 12 20 9 26 -3 5 -1 10 6 10 6 0 9 -8 6 -20 -3 -10 0 -21 7 -24
6 -2 -3 -7 -21 -11 -25 -6 -29 -10 -20 -20 7 -8 14 -9 18 -3 3 5 9 2 13 -8 10
-25 2 -27 -27 -3 -15 11 -27 18 -27 14 0 -3 -9 -1 -20 5 -13 7 -20 7 -20 1 0
-6 23 -20 50 -32 28 -12 50 -25 50 -30 0 -13 -59 -7 -71 7 -9 11 -15 9 -30 -9
-16 -19 -20 -20 -29 -7 -5 8 -8 21 -5 28 3 7 0 10 -6 7 -6 -4 -8 -14 -4 -22 4
-13 3 -14 -10 -3 -8 7 -13 16 -10 20 3 4 -2 13 -10 20 -13 11 -18 10 -29 -6
-12 -15 -11 -22 1 -41 14 -21 14 -23 -4 -23 -30 0 -34 9 -18 46 13 31 4 50 -9
22 -4 -7 -4 -3 -2 10 3 14 -1 22 -9 22 -7 0 -22 3 -32 6 -10 3 -7 -2 7 -10 23
-14 23 -15 5 -16 -13 -1 -15 -4 -6 -7 11 -5 11 -7 0 -14 -9 -6 -10 -12 -4 -16
6 -5 12 -17 13 -27 3 -17 1 -18 -11 -7 -11 8 -17 9 -22 1 -11 -18 2 -37 29
-42 14 -3 23 -1 20 3 -6 11 7 11 23 1 17 -11 -1 -36 -21 -29 -35 14 -13 -2 40
-28 30 -15 64 -25 75 -22 15 4 19 1 14 -12 -4 -12 8 -25 44 -46 58 -35 78 -62
61 -79 -8 -8 -16 -5 -30 14 -16 20 -20 22 -20 8 0 -29 -28 -21 -32 9 -2 21
-10 29 -35 35 -18 5 -33 13 -33 18 0 20 -39 10 -45 -11 -6 -16 -9 -18 -15 -8
-5 7 -7 16 -4 20 2 4 -4 10 -13 13 -15 6 -15 9 -3 17 12 9 12 10 -3 5 -10 -3
-23 -6 -28 -6 -6 0 -5 -9 2 -22 6 -12 14 -44 18 -71 6 -50 31 -79 31 -37 0 12
4 19 10 15 5 -3 6 -15 0 -29 -7 -20 -4 -25 28 -39 45 -20 122 -89 156 -140 30
-44 30 -44 12 -62 -12 -12 -15 -12 -22 3 -4 9 -8 22 -8 27 -1 6 -5 10 -11 10
-5 0 -9 -3 -8 -7 2 -4 -4 -5 -13 -1 -11 4 -12 8 -4 13 8 5 8 10 2 14 -5 3 -13
-1 -16 -10 -10 -25 -28 -4 -22 26 3 20 -1 33 -14 45 -14 12 -20 14 -20 5 0
-10 -3 -10 -15 0 -10 9 -15 9 -15 1 0 -18 -15 -12 -25 10 -23 50 -45 8 -25
-46 9 -24 13 -26 21 -15 8 13 11 13 22 -1 6 -9 19 -18 27 -21 12 -5 12 -7 -4
-13 -11 -5 -27 -3 -37 3 -26 17 -31 15 -27 -10 2 -12 11 -22 22 -24 11 -2 30
-5 42 -8 26 -7 43 12 23 25 -24 15 -3 10 43 -11 44 -19 81 -50 60 -50 -15 0
-24 -31 -12 -45 6 -7 8 -24 5 -37 -4 -17 -1 -29 11 -39 16 -12 17 -12 11 4 -7
19 1 47 13 47 4 0 8 -31 8 -69 l1 -69 -29 28 c-22 22 -37 28 -60 25 -16 -2
-30 0 -30 5 0 6 5 9 11 8 19 -5 22 21 4 29 -16 6 -39 -17 -40 -39 0 -19 -20
-6 -21 13 -1 12 -6 24 -11 28 -17 11 -13 51 5 52 9 0 2 5 -17 10 -18 6 -35 8
-37 6 -2 -2 -5 -43 -6 -92 l-3 -89 40 -22 c22 -12 46 -28 53 -34 15 -13 6 -34
-11 -23 -6 3 -1 -7 11 -24 12 -17 18 -33 14 -37 -3 -4 0 -11 8 -16 28 -18 32
-10 11 24 -24 39 -28 61 -6 28 15 -20 45 -25 61 -9 4 4 16 7 26 7 12 0 17 6
15 21 -1 12 5 24 13 26 9 3 11 1 5 -4 -13 -10 -17 -63 -5 -63 5 0 7 -7 3 -16
-6 -16 -7 -16 -18 0 -12 15 -13 15 -20 -1 -5 -10 -9 -22 -9 -28 -1 -5 -9 -9
-19 -9 -19 2 -23 -11 -7 -21 6 -3 10 -14 10 -23 0 -9 7 -26 15 -36 14 -18 15
-18 22 -1 4 11 2 20 -5 23 -7 2 -12 8 -12 13 0 5 9 4 20 -3 15 -10 20 -24 20
-55 0 -33 -4 -43 -20 -48 -12 -4 -20 -15 -20 -28 0 -16 3 -18 12 -9 20 20 28
13 28 -26 0 -50 -31 -73 -55 -39 -13 19 -17 20 -25 7 -5 -8 -10 -23 -10 -33 0
-10 -5 -27 -10 -37 -7 -13 -7 -21 0 -25 5 -3 10 1 10 10 0 15 22 45 33 45 3 0
8 -16 11 -35 4 -19 11 -35 16 -35 6 0 10 -11 10 -25 0 -38 -40 -33 -87 11 -66
62 -73 68 -73 59 0 -13 42 -55 54 -55 11 0 36 -86 36 -122 0 -21 -27 -48 -47
-48 -13 0 -13 3 -3 15 10 12 10 24 1 54 -9 32 -15 38 -31 34 -11 -3 -20 0 -20
6 0 6 6 11 14 11 8 0 16 6 19 13 6 18 -3 37 -19 37 -8 0 -14 6 -14 14 0 7 -11
16 -25 18 -14 3 -25 2 -25 -3 0 -21 14 -39 30 -39 10 0 21 -7 24 -16 5 -12 2
-15 -10 -10 -9 4 -24 1 -32 -6 -12 -10 -14 -10 -8 0 4 7 2 12 -4 12 -6 0 -8 5
-5 10 3 6 -1 10 -9 10 -10 0 -13 6 -9 16 4 12 0 14 -23 8 -16 -4 -35 -11 -42
-17 -7 -5 -14 -8 -17 -6 -8 9 12 30 31 33 10 1 24 13 29 25 7 16 16 21 33 18
12 -2 22 1 22 7 0 6 5 4 10 -4 5 -8 10 -10 10 -4 0 6 -9 23 -20 37 -11 14 -20
30 -20 36 0 6 -5 11 -11 11 -5 0 -7 4 -4 10 14 22 -37 82 -62 73 -18 -7 -16
-23 5 -46 16 -19 16 -19 -5 -13 -27 9 -30 -2 -5 -20 16 -13 15 -14 -7 -11 -19
1 -29 -6 -44 -35 -11 -21 -17 -41 -12 -45 4 -5 10 -2 12 5 6 17 30 15 37 -3 3
-9 -3 -19 -14 -25 -15 -8 -17 -15 -10 -33 5 -12 19 -67 31 -122 11 -55 25
-104 30 -109 12 -13 12 -26 0 -26 -5 0 -12 11 -15 25 -8 32 -18 32 -58 -5 -31
-29 -58 -39 -58 -22 0 4 9 14 21 22 52 37 68 55 60 69 -7 11 -13 11 -32 -3
-27 -18 -39 -20 -39 -6 0 6 7 10 15 10 9 0 15 9 15 22 0 17 3 19 12 10 34 -34
37 3 6 65 -14 29 -27 42 -36 38 -10 -4 -12 0 -7 12 11 29 11 35 -2 40 -7 3
-17 -6 -22 -20 -5 -13 -16 -27 -23 -30 -36 -13 -48 -190 -14 -209 21 -12 11
-28 -19 -28 -16 0 -25 7 -29 25 -4 16 -11 22 -21 19 -18 -7 -20 12 -3 22 8 5
6 11 -6 19 -9 7 -15 18 -14 25 2 7 -8 17 -22 21 -19 5 -20 7 -6 8 11 1 17 4
13 7 -3 4 -14 3 -24 0 -16 -7 -15 -9 7 -26 23 -17 23 -19 7 -26 -11 -4 -14 -9
-8 -13 15 -10 -12 -56 -32 -55 -9 1 -17 -4 -17 -12 0 -17 -36 -19 -46 -3 -4 7
-8 26 -9 44 -2 33 -30 73 -43 61 -3 -4 -2 -10 3 -14 18 -12 35 -61 24 -67 -5
-4 -6 -12 -2 -18 4 -8 1 -7 -9 1 -14 11 -22 11 -47 -2 -33 -17 -111 -22 -111
-7 0 12 -28 41 -40 41 -4 0 -6 -9 -3 -20 3 -11 10 -17 16 -13 6 3 7 1 3 -5 -4
-7 -36 -12 -81 -12 -57 0 -74 3 -79 16 -3 9 -3 20 0 26 7 11 -13 28 -34 28 -9
0 -11 -10 -6 -35 l6 -35 -52 0 c-37 0 -56 5 -65 16 -10 14 -13 14 -26 2 -11
-12 -55 -15 -214 -16 -134 -1 -195 1 -185 8 8 5 11 10 5 10 -5 0 -17 -4 -25
-10 -9 -6 -17 -5 -22 3 -6 9 -8 9 -8 0 0 -8 -13 -13 -29 -13 -25 0 -28 3 -24
23 5 20 5 21 -9 4 -13 -17 -15 -17 -37 7 -19 20 -27 23 -38 15 -7 -6 -13 -19
-13 -27 0 -12 -3 -13 -11 -5 -9 9 -7 16 5 29 9 9 15 21 13 28 -7 20 -38 18
-56 -3 -18 -21 -19 -21 -24 -1 -6 24 -39 27 -57 5 -27 -33 -50 -12 -50 46 0
16 -4 29 -9 29 -12 0 -23 -29 -15 -42 3 -5 -2 -18 -11 -28 -9 -10 -14 -24 -10
-29 7 -12 -17 -41 -34 -41 -6 0 -11 2 -11 4 0 2 -3 12 -6 20 -4 12 -2 15 9 11
20 -8 28 19 14 49 -14 30 -42 30 -42 1 0 -11 -8 -21 -18 -23 -19 -4 -24 -22
-5 -22 6 0 9 -2 6 -5 -3 -3 -13 -3 -22 1 -20 8 -21 44 -1 44 21 0 27 19 17 54
-6 22 -15 30 -36 33 -20 3 -26 0 -20 -8 5 -9 2 -10 -9 -6 -20 7 -35 -32 -17
-43 9 -5 9 -9 1 -14 -14 -9 -31 1 -31 20 0 8 -9 22 -20 31 -24 21 -28 78 -6
70 10 -4 13 -1 9 9 -3 7 -1 14 5 14 5 0 12 -7 16 -15 6 -17 106 -22 106 -5 0
6 9 6 23 1 27 -10 87 12 66 24 -8 5 -14 4 -17 -3 -2 -7 -8 -10 -13 -6 -5 3 -9
1 -9 -4 0 -6 -9 -6 -24 1 -14 7 -21 17 -19 27 2 9 -3 22 -12 30 -19 16 -32 6
-17 -13 16 -18 7 -25 -24 -19 -18 3 -23 9 -19 20 4 12 1 11 -15 -3 -22 -19
-22 -19 -36 0 -8 10 -14 22 -14 27 0 4 -7 8 -15 8 -8 0 -15 8 -16 18 0 9 -2
25 -4 35 -4 19 11 24 18 5 2 -7 8 -10 12 -6 4 4 2 15 -6 25 -9 11 -10 14 -1 9
6 -4 12 -3 12 3 0 6 10 16 23 22 21 12 21 11 4 -8 -9 -11 -14 -23 -11 -26 4
-4 1 -13 -6 -22 -16 -19 -10 -25 31 -30 18 -3 36 -10 40 -16 4 -8 9 -4 14 10
8 27 25 27 32 1 3 -11 11 -20 18 -20 16 0 27 28 18 43 -4 7 1 6 10 -2 24 -19
34 -6 14 17 -10 10 -17 24 -17 31 0 9 -5 9 -20 1 -16 -8 -20 -8 -20 4 0 8 5
16 11 18 15 5 0 38 -18 38 -8 0 -11 5 -8 11 4 6 13 8 21 5 9 -4 18 4 24 19 5
14 14 25 20 25 6 0 5 -8 -2 -20 -11 -16 -10 -25 4 -47 17 -29 56 -55 70 -47 4
3 8 18 8 33 0 16 7 45 16 66 16 40 14 51 -11 42 -8 -4 -15 -18 -15 -32 0 -14
-7 -28 -15 -31 -8 -4 -15 -14 -16 -23 0 -10 -3 -11 -6 -4 -2 7 4 38 15 70 27
80 25 112 -6 81 -7 -7 -12 -22 -12 -35 0 -26 -3 -27 -32 -12 -17 9 -23 8 -30
-5 -12 -21 -29 -11 -22 12 5 14 4 14 -4 3 -8 -12 -13 -12 -25 -3 -18 15 -29
65 -13 59 6 -3 10 -10 9 -16 -2 -6 2 -11 7 -11 6 0 10 4 10 9 0 5 8 12 18 14
11 3 7 7 -15 12 -40 9 -47 40 -8 33 27 -6 32 7 14 32 -8 11 -12 12 -16 3 -2
-7 -11 -13 -19 -13 -7 0 -16 -11 -20 -25 -3 -14 -12 -25 -20 -25 -8 0 -14 -8
-14 -18 0 -10 -11 -25 -24 -32 -23 -12 -41 -38 -33 -47 9 -8 37 10 42 28 8 25
36 25 32 -1 -4 -24 -17 -39 -17 -19 -1 10 -4 8 -11 -4 -15 -25 -5 -32 28 -18
48 19 73 21 66 5 -3 -8 -18 -14 -34 -14 -21 0 -29 -5 -29 -17 0 -15 2 -16 10
-3 7 11 12 12 21 3 9 -9 6 -13 -16 -19 -15 -4 -30 -3 -34 2 -3 5 -15 11 -26
12 -11 2 -23 10 -27 17 -5 7 -16 11 -27 8 -17 -4 -18 2 -19 78 -1 56 3 86 11
91 9 6 9 8 0 8 -10 0 -13 54 -12 240 1 132 5 242 10 245 4 3 6 19 2 35 -5 29
-5 30 35 30 28 0 42 -5 47 -17 16 -37 14 -44 -13 -41 -22 2 -28 -2 -30 -19 -4
-28 12 -29 38 -3 11 11 33 20 50 20 23 0 30 -4 30 -20 0 -14 7 -20 23 -20 21
0 24 5 25 45 0 38 -3 45 -19 45 -10 0 -19 -6 -19 -14 0 -13 -20 -26 -41 -26
-16 0 -9 49 9 59 16 9 16 11 0 27 -17 17 -18 17 -31 0 -7 -9 -31 -20 -55 -23
-39 -5 -42 -4 -43 18 0 22 -1 23 -9 4 -7 -17 -8 -16 -7 8 1 15 6 26 12 24 45
-17 53 -17 58 3 6 25 -7 34 -39 26 -19 -5 -24 -2 -24 12 0 10 6 24 12 31 11
11 10 13 -4 8 -15 -5 -17 0 -16 38 0 37 4 44 24 48 21 4 23 1 18 -20 -6 -22
-5 -23 20 -12 20 9 25 17 20 32 -4 14 -2 18 7 14 8 -2 13 -10 11 -16 -2 -13 8
-14 27 -2 11 7 10 11 -4 19 -17 9 -16 10 5 17 13 4 18 10 12 14 -7 4 -8 12 -1
21 7 12 11 12 17 2 5 -8 16 -10 27 -6 14 6 17 4 12 -9 -5 -14 1 -17 38 -17 38
0 45 3 45 20 0 14 -7 20 -24 20 -17 0 -25 7 -28 25 -3 14 -2 25 2 25 12 0 30
-26 23 -33 -8 -9 44 -7 74 1 20 6 20 9 7 27 -12 17 -16 18 -24 5 -5 -8 -6 -18
-4 -22 3 -4 -2 -8 -10 -8 -9 0 -16 7 -16 15 0 8 -7 15 -15 15 -8 0 -15 3 -15
8 0 8 -49 32 -67 32 -7 0 -15 -11 -19 -25 -5 -21 -10 -24 -33 -19 -39 10 -45
16 -27 26 9 5 16 17 16 28 0 13 5 17 20 13 12 -3 20 0 20 7 0 7 10 23 23 35
12 12 35 39 51 59 27 34 29 35 43 19 13 -17 13 -17 5 2 -11 23 -5 47 14 58 8
4 14 15 14 23 0 8 -5 12 -11 8 -6 -3 -22 0 -35 7 -21 11 -27 10 -39 -2 -14
-13 -13 -17 5 -37 26 -28 27 -46 1 -32 -25 13 -34 13 -26 0 3 -5 1 -10 -5 -10
-6 0 -8 -4 -5 -10 3 -5 2 -10 -4 -10 -5 0 -12 4 -16 10 -3 5 -12 7 -21 3 -18
-7 -49 -63 -34 -63 6 0 14 8 17 18 12 30 27 40 41 26 9 -10 8 -16 -8 -27 -11
-8 -17 -17 -13 -20 3 -4 1 -7 -5 -7 -7 0 -12 -7 -12 -15 0 -8 -6 -15 -14 -15
-8 0 -16 -6 -18 -12 -3 -7 -15 -13 -29 -13 -29 0 -39 -33 -15 -47 12 -6 15
-16 10 -30 -5 -17 -3 -20 10 -15 10 4 15 3 11 -3 -16 -26 -65 9 -65 47 0 12
-4 23 -9 23 -4 0 -7 -11 -6 -25 2 -14 -1 -25 -5 -25 -5 0 -9 36 -9 80 0 63 3
80 14 80 8 0 15 -7 15 -15 0 -8 -5 -15 -10 -15 -6 0 -9 -6 -8 -12 3 -14 38
-31 46 -23 3 3 0 5 -6 5 -7 0 -12 7 -12 15 0 8 9 15 20 15 22 0 27 15 8 26 -7
4 -8 3 -4 -4 4 -7 3 -12 -3 -12 -14 0 -11 73 3 82 7 5 5 8 -6 8 -9 0 -18 -5
-20 -11 -2 -5 -11 -7 -21 -4 -25 10 -21 44 8 57 26 12 36 31 11 22 -12 -4 -15
4 -14 35 0 23 4 43 8 46 5 3 6 15 4 28 -2 12 -2 16 2 10 11 -25 24 -13 24 23
0 21 4 33 10 29 6 -3 10 -2 10 4 0 5 9 13 21 16 14 5 19 13 16 25 -3 10 5 26
17 36 30 27 106 63 121 58 6 -3 17 2 24 10 13 16 111 18 111 2z m230 -2 c0
-14 -2 -15 -16 -3 -15 12 -16 11 -9 -11 4 -14 13 -30 21 -36 11 -9 9 -13 -13
-23 -22 -10 -25 -10 -15 1 8 11 8 21 -2 40 -8 15 -11 30 -8 34 4 5 0 3 -9 -4
-12 -9 -18 -9 -27 0 -9 9 -12 9 -12 0 0 -6 -7 -9 -15 -6 -20 8 -19 -5 5 -41
11 -16 20 -24 20 -16 0 8 3 12 6 8 3 -3 -2 -19 -12 -36 -17 -29 -18 -30 -32
-10 -10 15 -11 23 -2 34 9 10 9 19 0 35 -19 36 -7 47 59 49 51 1 61 -1 61 -15z
m108 9 c-10 -2 -18 -12 -18 -21 0 -15 -2 -15 -10 -2 -16 24 -12 30 18 29 16
-1 20 -3 10 -6z m989 1 c-11 -11 -77 -14 -77 -4 0 6 19 10 42 10 23 0 38 -3
35 -6z m43 -9 c0 -8 -4 -15 -10 -15 -5 0 -10 7 -10 15 0 8 5 15 10 15 6 0 10
-7 10 -15z m119 -15 l-1 -25 -8 25 c-4 14 -8 20 -9 14 -1 -7 -16 -10 -38 -7
-59 6 -58 18 3 18 51 1 54 -1 53 -25z m-1219 -11 c0 -6 -4 -7 -10 -4 -5 3 -10
11 -10 16 0 6 5 7 10 4 6 -3 10 -11 10 -16z m995 -9 c3 -5 -1 -10 -10 -10 -9
0 -13 5 -10 10 3 6 8 10 10 10 2 0 7 -4 10 -10z m197 -37 c-6 -2 -9 -10 -6
-15 4 -7 2 -8 -5 -4 -13 9 -5 26 12 25 9 0 8 -2 -1 -6z m408 -28 c0 -21 -17
-27 -24 -9 -10 25 -7 34 9 28 8 -4 15 -12 15 -19z m-90 -1 c0 -3 -9 -14 -20
-26 -10 -12 -16 -26 -13 -32 4 -6 -1 -5 -10 3 -21 17 -21 30 -1 52 13 15 44
17 44 3z m50 -9 c0 -19 -24 -35 -39 -26 -10 7 -10 12 0 29 13 21 39 19 39 -3z
m54 -29 c-7 -18 -35 -30 -31 -13 2 13 17 27 29 27 4 0 5 -6 2 -14z m-5 -95
c11 -7 9 -10 -8 -16 -13 -4 -25 -4 -28 -1 -4 3 -1 6 6 6 7 0 9 5 6 10 -8 12 5
13 24 1z m101 -11 c0 -5 -4 -10 -10 -10 -5 0 -10 5 -10 10 0 6 5 10 10 10 6 0
10 -4 10 -10z m-79 -162 c-11 -31 -29 -34 -24 -3 3 14 11 25 19 25 10 0 11 -6
5 -22z m-2211 -159 c0 -5 -4 -9 -8 -9 -5 0 -9 7 -9 15 0 8 4 12 9 9 4 -3 8 -9
8 -15z m120 -49 c8 -5 11 -10 5 -10 -5 0 -17 5 -25 10 -8 5 -10 10 -5 10 6 0
17 -5 25 -10z m-158 -39 c-3 -9 -1 -12 6 -7 9 5 10 1 1 -16 -13 -30 -49 -55
-49 -35 0 7 5 18 12 25 9 9 9 12 0 12 -15 0 -16 32 -1 47 15 15 39 -6 31 -26z
m2278 20 c14 -27 13 -36 -3 -22 -8 6 -18 7 -22 3 -5 -4 -5 -1 -1 6 4 6 2 12
-4 12 -6 0 -8 5 -5 10 10 16 23 12 35 -9z m-2198 -35 c4 -18 0 -26 -14 -29
-16 -5 -17 -3 -7 9 9 11 7 14 -10 14 -11 0 -21 5 -21 11 0 5 4 8 8 5 4 -2 14
-1 22 5 8 5 16 9 16 9 1 0 4 -11 6 -24z m2188 -58 c0 -4 -4 -10 -10 -13 -5 -3
-10 -1 -10 5 0 6 -4 8 -10 5 -5 -3 -10 3 -10 14 0 19 2 20 20 9 11 -7 20 -16
20 -20z m-72 -7 c3 -8 -1 -12 -9 -9 -7 2 -15 10 -17 17 -3 8 1 12 9 9 7 -2 15
-10 17 -17z m115 -5 c21 -17 23 -40 1 -32 -9 3 -19 6 -24 6 -5 0 -8 9 -7 20 2
23 6 24 30 6z m-53 -31 c10 -12 10 -15 -4 -15 -9 0 -16 7 -16 15 0 8 2 15 4
15 2 0 9 -7 16 -15z m79 -31 c6 -5 -10 -24 -22 -24 -7 0 -6 4 3 10 12 8 11 10
-7 10 -13 0 -23 5 -23 11 0 9 36 4 49 -7z m-114 -43 c3 -5 1 -12 -5 -16 -5 -3
-10 0 -10 7 -1 8 -6 6 -15 -6 -16 -21 -45 -30 -45 -15 0 6 -5 7 -10 4 -6 -4
-9 -1 -8 7 2 7 17 16 33 19 46 10 53 10 60 0z m12 -43 c5 -7 9 -19 9 -25 -1
-18 -21 -11 -21 6 0 8 -6 16 -13 19 -6 2 -12 -1 -12 -8 0 -6 5 -8 12 -4 7 5 8
3 3 -5 -5 -9 -11 -9 -17 -3 -12 12 -2 32 16 32 8 0 18 -6 23 -12z m79 -25 c-7
-7 -26 7 -26 19 0 6 6 6 15 -2 9 -7 13 -15 11 -17z m-23 -40 c-5 -13 -7 -13
-21 0 -8 8 -11 20 -7 27 10 16 35 -7 28 -27z m-40 -29 c-4 -10 -9 -10 -23 -2
-17 11 -17 13 -2 24 19 14 34 0 25 -22z m94 10 c0 -20 -31 -13 -35 8 -2 12 2
15 16 11 10 -2 19 -11 19 -19z m-52 -45 c-4 -13 -1 -19 9 -19 10 0 13 6 10 15
-4 9 0 15 10 15 12 0 15 -8 13 -30 -2 -17 -6 -33 -10 -36 -4 -5 -67 53 -67 62
0 1 3 10 6 18 9 24 36 -1 29 -25z m-93 -55 c-5 -24 -8 -27 -21 -19 -18 11 -13
44 7 40 11 -1 16 -9 14 -21z m138 -154 c0 -5 -5 -10 -11 -10 -5 0 -7 5 -4 10
3 6 8 10 11 10 2 0 4 -4 4 -10z m-175 -100 c3 -5 1 -10 -4 -10 -6 0 -11 5 -11
10 0 6 2 10 4 10 3 0 8 -4 11 -10z m125 -51 c0 -5 -7 -9 -15 -9 -9 0 -12 6 -9
15 6 15 24 11 24 -6z m-101 -4 c16 -8 31 -11 35 -8 3 4 6 1 6 -5 0 -15 -6 -15
-31 -2 -15 8 -19 7 -19 -3 0 -8 -9 -17 -21 -20 -16 -4 -18 -3 -9 8 8 9 8 15 0
20 -6 3 -8 11 -5 16 8 12 11 12 44 -6z m128 -56 c-5 -3 -8 -9 -8 -13 4 -31 0
-38 -14 -26 -8 7 -15 19 -15 26 0 8 7 14 15 14 9 0 15 10 16 28 l1 27 7 -25
c4 -14 3 -28 -2 -31z m-41 5 c-16 -15 -19 -16 -34 -1 -14 15 -14 17 9 26 32
12 47 -3 25 -25z m-2249 -321 c-15 -16 -17 -16 -17 -1 0 9 6 18 13 21 20 7 22
-2 4 -20z m-27 -9 c0 -12 -4 -12 -20 -2 -13 8 -16 15 -8 19 15 10 28 2 28 -17z
m20 -34 c0 -5 -2 -10 -4 -10 -3 0 -8 5 -11 10 -3 6 -1 10 4 10 6 0 11 -4 11
-10z m-38 -26 c-1 -10 -3 -32 -4 -47 -2 -52 -16 -37 -17 19 0 39 3 54 12 51 7
-2 11 -13 9 -23z m128 -12 c0 -11 -22 -32 -32 -32 -5 0 -4 9 2 20 11 20 30 28
30 12z m1940 -1 c0 -12 -20 -25 -27 -18 -7 7 6 27 18 27 5 0 9 -4 9 -9z
m-2064 -106 c-3 -9 -11 -13 -16 -10 -8 5 -7 11 1 21 14 18 24 11 15 -11z
m2096 -145 c17 0 18 -3 8 -15 -7 -8 -16 -12 -21 -9 -5 3 -12 -2 -15 -10 -3 -9
-10 -14 -15 -11 -4 3 -6 11 -3 18 2 7 -5 30 -16 51 -27 54 -13 67 17 17 16
-27 31 -41 45 -41z m-141 41 c-7 -5 -10 -14 -7 -20 4 -6 3 -11 -3 -11 -5 0
-16 -3 -25 -6 -13 -5 -13 -2 -3 20 7 14 19 27 27 29 21 5 27 -2 11 -12z m195
-36 c-11 -11 -17 -12 -22 -4 -4 7 1 18 12 26 23 17 32 -1 10 -22z m-1999 -22
c3 -7 -4 -9 -16 -6 -12 3 -18 9 -15 15 7 11 26 6 31 -9z m1763 -13 c0 -5 -5
-10 -11 -10 -5 0 -7 5 -4 10 3 6 8 10 11 10 2 0 4 -4 4 -10z m220 -31 c0 -10
-4 -19 -10 -19 -5 0 -10 -9 -10 -20 0 -11 -4 -20 -10 -20 -11 0 -13 12 -10 50
3 42 40 50 40 9z m60 27 c0 -2 -9 -6 -20 -9 -11 -3 -18 -1 -14 4 5 9 34 13 34
5z m-1807 -86 c-3 -11 -12 -20 -20 -20 -8 0 -12 3 -10 8 2 4 7 15 10 25 9 24
27 12 20 -13z m1384 -12 c-3 -8 -6 -5 -6 6 -1 11 2 17 5 13 3 -3 4 -12 1 -19z
m-1755 -132 c9 -4 14 -14 11 -21 -4 -12 -9 -12 -28 1 -17 11 -25 12 -30 4 -9
-14 3 -27 29 -32 52 -9 43 -71 -11 -76 -41 -4 -62 21 -38 45 12 11 14 18 6 21
-14 5 -14 45 0 59 11 11 34 11 61 -1z m49 -42 c1 -27 6 -55 12 -62 13 -16 3
-25 -20 -18 -16 5 -18 15 -16 58 5 92 22 107 24 22z m468 32 c12 -11 16 -26
13 -48 -6 -46 -29 -68 -69 -68 l-33 0 0 68 0 67 36 -1 c19 -1 43 -9 53 -18z
m339 -51 c2 -40 -1 -65 -8 -65 -6 0 -10 27 -10 65 0 36 4 65 8 65 4 0 9 -29
10 -65z m302 55 c0 -5 -4 -10 -10 -10 -5 0 -10 5 -10 10 0 6 5 10 10 10 6 0
10 -4 10 -10z m375 -4 c23 -17 23 -71 -1 -97 -10 -11 -30 -19 -51 -19 l-33 0
0 65 0 65 33 0 c18 0 41 -6 52 -14z m60 -51 c0 -46 -4 -65 -13 -65 -9 0 -12
17 -10 65 3 86 23 86 23 0z m583 25 c16 -1 16 -2 0 -14 -22 -16 -23 -45 -3
-52 19 -8 20 -24 1 -24 -32 0 -52 64 -34 108 11 26 12 26 15 5 3 -13 12 -23
21 -23z m50 29 c-2 -6 -8 -10 -13 -10 -5 0 -11 4 -13 10 -2 6 4 11 13 11 9 0
15 -5 13 -11z m-1128 -13 c0 -8 6 -17 13 -20 10 -5 10 -7 0 -12 -19 -8 -16
-54 2 -54 8 0 15 -5 15 -11 0 -6 -10 -9 -22 -7 -17 2 -24 11 -26 33 -2 17 -8
36 -14 43 -7 8 -7 12 1 12 6 0 11 7 11 15 0 8 5 15 10 15 6 0 10 -6 10 -14z
m-955 -24 c18 -17 20 -17 38 1 23 23 48 19 64 -13 12 -24 11 -25 -22 -28 -19
-2 -35 -8 -35 -14 0 -6 12 -8 30 -4 33 6 42 -9 10 -19 -26 -8 -60 3 -60 19 0
7 -16 13 -41 15 -27 1 -39 -2 -34 -9 4 -6 15 -10 24 -8 10 2 20 -1 22 -7 6
-15 -40 -18 -57 -5 -20 17 -18 67 4 79 25 15 36 13 57 -7z m196 8 c22 -12 26
-59 7 -78 -7 -7 -22 -12 -34 -12 -14 0 -24 -8 -27 -22 -10 -36 -19 -14 -19 44
1 38 6 56 18 65 22 16 30 16 55 3z m279 -10 c26 -26 18 -40 -21 -40 -19 0 -28
-4 -23 -11 3 -6 17 -8 31 -4 18 4 24 2 21 -7 -6 -18 -37 -22 -63 -8 -26 14
-26 57 1 77 24 17 31 16 54 -7z m102 8 c24 -20 28 -44 11 -68 -11 -15 -23 -20
-39 -17 -20 3 -24 0 -24 -19 0 -31 -20 -32 -21 -1 0 12 -2 39 -3 59 -1 20 0
35 2 33 3 -2 11 2 19 10 18 18 34 19 55 3z m98 4 c0 -4 -9 -13 -21 -20 -16
-10 -20 -21 -17 -43 3 -20 0 -29 -9 -29 -9 0 -13 14 -13 44 0 34 4 46 18 49
28 8 42 7 42 -1z m224 -14 c20 -29 22 -82 2 -75 -7 3 -17 2 -22 -3 -5 -5 -23
-3 -40 5 -27 11 -31 17 -27 39 5 27 37 56 60 56 6 0 19 -10 27 -22z m116 -28
c0 -27 -4 -50 -10 -50 -5 0 -10 23 -10 50 0 28 5 50 10 50 6 0 10 -22 10 -50z
m100 30 c25 -25 25 -36 3 -64 -24 -29 -64 -21 -77 17 -8 21 -6 31 9 47 23 25
40 25 65 0z m108 8 c14 -14 16 -88 2 -88 -5 0 -10 15 -10 34 0 19 -5 38 -10
41 -15 9 -41 -14 -39 -34 3 -30 -1 -42 -11 -36 -5 3 -10 24 -10 45 0 28 5 40
18 43 32 8 48 7 60 -5z m325 -2 c9 -7 17 -22 18 -32 0 -14 2 -15 6 -4 9 25 35
50 51 50 44 0 73 -90 38 -119 -21 -18 -71 -10 -71 11 0 10 -6 23 -13 30 -9 9
-12 9 -12 -5 0 -22 -62 -23 -84 -1 -21 21 -20 40 4 64 23 23 38 25 63 6z m215
2 c16 -21 20 -88 5 -88 -7 0 -14 11 -14 25 -2 44 -4 48 -16 52 -6 2 -14 -1
-19 -8 -6 -10 -8 -22 -13 -67 0 -7 -5 -11 -10 -8 -5 3 -9 26 -8 51 1 44 6 51
48 54 9 0 21 -5 27 -11z m104 0 c9 -7 18 -26 20 -43 2 -25 -2 -31 -25 -39 -38
-14 -61 2 -68 47 -3 20 -3 34 1 32 3 -2 12 0 20 6 20 12 33 11 52 -3z m96 4
c7 -5 10 -16 7 -24 -4 -9 -2 -19 4 -23 8 -4 8 -12 0 -26 -12 -23 -59 -23 -67
-1 -3 9 3 11 22 6 16 -4 26 -2 26 4 0 6 -10 12 -22 14 -26 3 -37 36 -16 49 16
11 29 11 46 1z m211 -5 c14 -18 2 -30 -16 -15 -11 9 -18 8 -30 -5 -14 -13 -14
-19 -3 -32 8 -9 22 -14 32 -12 11 3 18 0 18 -8 0 -22 -43 -22 -62 -1 -24 26
-23 52 4 70 27 20 42 20 57 3z m-1420 -24 c12 -27 13 -27 27 -9 7 10 15 24 17
30 2 6 7 8 11 4 8 -7 -30 -88 -42 -88 -4 0 -14 17 -22 38 -8 20 -16 40 -18 45
-2 4 0 7 6 7 5 0 14 -12 21 -27z m1324 -11 c-2 -68 -2 -68 -13 -52 -14 22 -13
93 2 88 6 -2 11 -19 11 -36z"/>
<path d="M1082 2673 c-13 -14 -21 -32 -19 -41 4 -15 5 -15 6 1 1 23 28 22 74
-3 29 -16 37 -17 37 -6 0 8 -8 13 -17 12 -12 0 -19 7 -21 22 -2 12 2 22 8 22
6 0 8 5 5 10 -11 18 -49 9 -73 -17z"/>
<path d="M1191 2686 c-10 -11 -8 -16 9 -21 13 -4 27 -2 34 5 8 10 8 11 -1 6
-7 -4 -18 -4 -25 0 -8 5 -6 10 8 15 15 6 15 8 3 8 -9 1 -22 -5 -28 -13z"/>
<path d="M1530 2690 c-8 -5 -10 -10 -5 -10 6 0 17 5 25 10 8 5 11 10 5 10 -5
0 -17 -5 -25 -10z"/>
<path d="M574 2672 c4 -3 14 -7 22 -8 9 -1 13 0 10 4 -4 3 -14 7 -22 8 -9 1
-13 0 -10 -4z"/>
<path d="M1416 2663 c-4 -10 0 -23 11 -32 15 -15 16 -15 5 0 -7 9 -10 24 -6
33 3 9 4 16 1 16 -3 0 -8 -8 -11 -17z"/>
<path d="M2358 2673 c7 -3 16 -2 19 1 4 3 -2 6 -13 5 -11 0 -14 -3 -6 -6z"/>
<path d="M1360 2661 c0 -5 7 -15 17 -22 15 -13 15 -12 4 9 -12 23 -21 28 -21
13z"/>
<path d="M1556 2654 c-5 -14 -4 -15 9 -4 17 14 19 20 6 20 -5 0 -12 -7 -15
-16z"/>
<path d="M2014 2643 c2 -9 8 -19 15 -21 10 -3 10 0 2 17 -14 25 -20 27 -17 4z"/>
<path d="M665 2630 c3 -5 8 -10 11 -10 2 0 4 5 4 10 0 6 -5 10 -11 10 -5 0 -7
-4 -4 -10z"/>
<path d="M1820 2630 c-13 -8 -12 -10 3 -10 9 0 17 5 17 10 0 12 -1 12 -20 0z"/>
<path d="M1018 2613 c7 -3 16 -2 19 1 4 3 -2 6 -13 5 -11 0 -14 -3 -6 -6z"/>
<path d="M1240 2616 c0 -2 7 -9 15 -16 13 -11 14 -10 9 4 -5 14 -24 23 -24 12z"/>
<path d="M1703 2597 c2 -21 6 -25 20 -21 23 7 24 -31 1 -40 -9 -4 -15 -9 -12
-11 13 -14 38 10 38 35 0 16 5 32 10 35 6 3 10 11 10 16 0 6 -7 3 -16 -5 -20
-20 -31 -20 -43 1 -7 14 -9 12 -8 -10z"/>
<path d="M1785 2610 c-3 -5 -1 -10 4 -10 6 0 11 5 11 10 0 6 -2 10 -4 10 -3 0
-8 -4 -11 -10z"/>
<path d="M413 2603 c-16 -6 -5 -33 13 -33 8 0 14 6 14 14 0 18 -11 25 -27 19z"/>
<path d="M517 2593 c-13 -12 -7 -33 8 -33 20 0 19 -9 -2 -34 -15 -17 -15 -19
-1 -8 11 9 18 10 23 2 10 -16 23 -12 30 10 4 14 -1 28 -17 45 -24 26 -31 29
-41 18z"/>
<path d="M1113 2588 c0 -7 13 -14 29 -15 15 -1 28 2 28 7 0 5 -6 7 -14 4 -8
-3 -17 -1 -21 5 -9 15 -22 14 -22 -1z"/>
<path d="M600 2576 c0 -2 7 -9 15 -16 13 -11 14 -10 9 4 -5 14 -24 23 -24 12z"/>
<path d="M860 2550 c0 -23 4 -30 20 -30 25 0 28 45 4 54 -23 9 -24 8 -24 -24z"/>
<path d="M963 2573 c9 -2 23 -2 30 0 6 3 -1 5 -18 5 -16 0 -22 -2 -12 -5z"/>
<path d="M1064 2566 c11 -9 24 -16 30 -16 12 0 7 5 -24 19 -24 11 -24 11 -6
-3z"/>
<path d="M1206 2564 c-4 -10 -12 -14 -24 -9 -13 5 -14 4 -5 -6 9 -9 16 -9 26
-1 10 9 17 8 26 -1 11 -10 11 -8 2 11 -14 26 -17 27 -25 6z"/>
<path d="M463 2553 c9 -2 23 -2 30 0 6 3 -1 5 -18 5 -16 0 -22 -2 -12 -5z"/>
<path d="M1420 2550 c-9 -6 -10 -10 -3 -10 6 0 15 5 18 10 8 12 4 12 -15 0z"/>
<path d="M420 2540 c0 -5 -7 -7 -15 -4 -9 4 -15 0 -15 -9 0 -18 38 -29 59 -17
10 6 11 10 4 10 -7 0 -13 7 -13 15 0 8 -4 15 -10 15 -5 0 -10 -4 -10 -10z"/>
<path d="M950 2509 c0 -16 2 -29 4 -29 2 0 11 -3 19 -6 10 -4 16 4 19 25 4 24
0 30 -19 34 -20 4 -23 0 -23 -24z"/>
<path d="M1612 2531 c-8 -5 -11 -17 -7 -33 7 -26 -15 -54 -23 -30 -2 7 -8 12
-14 12 -7 0 -6 -5 1 -14 9 -11 8 -15 -6 -21 -10 -5 -22 -7 -26 -6 -5 1 -5 -4
-2 -10 4 -6 16 -9 26 -6 11 3 23 -2 29 -11 5 -10 9 -12 10 -7 0 6 -4 16 -9 24
-7 10 -3 20 12 31 23 18 67 35 80 32 4 -1 7 3 7 8 0 6 -7 10 -15 10 -8 0 -15
7 -15 15 0 16 -27 20 -48 6z"/>
<path d="M1172 2510 c-17 -28 -15 -34 4 -15 10 9 20 12 23 8 15 -22 36 -20 37
3 2 25 -11 33 -19 12 -3 -10 -7 -10 -18 -1 -12 10 -17 8 -27 -7z"/>
<path d="M1430 2511 c10 -19 9 -25 -1 -32 -11 -7 -11 -9 -1 -9 21 0 26 30 7
48 -16 16 -17 16 -5 -7z"/>
<path d="M2081 2513 c-1 -9 -19 -13 -53 -14 -42 0 -48 -2 -30 -9 25 -10 30
-40 7 -40 -8 0 -15 -4 -15 -10 0 -5 7 -7 16 -3 11 4 22 -1 30 -12 8 -10 14
-13 14 -7 0 7 7 12 15 12 10 0 15 -10 15 -26 0 -21 -4 -25 -20 -21 -11 3 -23
1 -26 -5 -4 -6 6 -8 22 -6 21 2 30 9 32 26 5 31 17 28 48 -13 14 -19 35 -35
45 -35 23 0 23 3 2 48 -13 27 -14 37 -4 40 8 3 7 8 -6 18 -17 13 -17 14 1 7
13 -4 17 -2 14 8 -3 8 -11 14 -19 15 -46 3 -50 5 -43 16 5 7 0 9 -14 6 -12 -3
-23 -1 -26 6 -3 7 -5 7 -5 -1z m-17 -45 c18 -26 15 -32 -13 -23 -12 3 -21 15
-21 26 0 25 15 24 34 -3z"/>
<path d="M316 2495 c-8 -23 -8 -23 13 -34 27 -15 36 12 12 33 -17 16 -19 16
-25 1z"/>
<path d="M358 2503 c7 -3 16 -2 19 1 4 3 -2 6 -13 5 -11 0 -14 -3 -6 -6z"/>
<path d="M376 2477 c-23 -31 -57 -100 -52 -105 3 -2 20 11 39 30 18 18 42 35
53 36 25 5 28 8 20 28 -6 16 -8 15 -21 -2 -13 -18 -14 -18 -9 2 8 31 -11 38
-30 11z"/>
<path d="M1948 2493 c7 -3 16 -2 19 1 4 3 -2 6 -13 5 -11 0 -14 -3 -6 -6z"/>
<path d="M1020 2481 l-25 -7 28 -6 c19 -4 27 -1 27 8 0 8 -1 14 -2 13 -2 -1
-14 -4 -28 -8z"/>
<path d="M1460 2481 c0 -5 5 -13 10 -16 6 -3 10 -2 10 4 0 5 -4 13 -10 16 -5
3 -10 2 -10 -4z"/>
<path d="M758 2473 c7 -3 16 -2 19 1 4 3 -2 6 -13 5 -11 0 -14 -3 -6 -6z"/>
<path d="M798 2473 c7 -3 16 -2 19 1 4 3 -2 6 -13 5 -11 0 -14 -3 -6 -6z"/>
<path d="M1905 2470 c-3 -6 1 -7 9 -4 18 7 21 14 7 14 -6 0 -13 -4 -16 -10z"/>
<path d="M2220 2461 c0 -12 6 -21 15 -21 8 0 15 3 15 6 0 3 -7 12 -15 20 -13
14 -15 13 -15 -5z"/>
<path d="M2280 2465 c0 -8 -4 -15 -10 -15 -5 0 -10 -10 -10 -22 l0 -21 20 23
c21 25 26 50 10 50 -5 0 -10 -7 -10 -15z"/>
<path d="M1970 2460 c0 -5 -12 -10 -26 -10 -14 0 -23 -4 -20 -9 8 -13 56 0 56
15 0 8 -2 14 -5 14 -3 0 -5 -4 -5 -10z"/>
<path d="M450 2451 c0 -6 4 -11 9 -11 5 0 11 -10 13 -22 2 -18 8 -22 28 -20
39 5 72 62 36 62 -9 0 -13 -8 -9 -22 4 -20 3 -21 -9 -8 -7 8 -18 16 -23 17 -6
1 -18 5 -27 8 -11 4 -18 3 -18 -4z"/>
<path d="M1180 2440 c-6 -11 -8 -20 -6 -20 3 0 10 9 16 20 6 11 8 20 6 20 -3
0 -10 -9 -16 -20z"/>
<path d="M1451 2444 c0 -11 3 -14 6 -6 3 7 2 16 -1 19 -3 4 -6 -2 -5 -13z"/>
<path d="M2337 2444 c5 -13 8 -13 15 -2 6 8 8 -7 5 -44 -6 -61 -8 -59 42 -49
2 1 -4 12 -13 26 -16 24 -16 25 10 25 21 0 24 3 15 13 -6 8 -8 17 -4 20 3 4 1
7 -4 7 -6 0 -14 -6 -16 -12 -4 -8 -8 -4 -12 10 -4 12 -15 22 -26 22 -13 0 -16
-5 -12 -16z"/>
<path d="M1328 2431 c-13 -15 -14 -22 -5 -30 15 -12 47 10 47 33 0 22 -22 20
-42 -3z"/>
<path d="M2313 2424 c-7 -7 -13 -16 -13 -20 0 -4 -8 -16 -17 -26 -14 -16 -15
-20 -2 -32 8 -8 32 -16 54 -19 22 -3 32 -3 23 -1 -17 5 -22 20 -19 55 1 8 -2
25 -6 36 -7 17 -10 19 -20 7z"/>
<path d="M978 2423 c7 -3 16 -2 19 1 4 3 -2 6 -13 5 -11 0 -14 -3 -6 -6z"/>
<path d="M1131 2424 c-1 -18 26 -37 34 -24 3 5 0 10 -9 10 -8 0 -17 6 -19 13
-4 7 -6 8 -6 1z"/>
<path d="M1619 2413 c-13 -17 -13 -17 6 -3 11 8 22 16 24 17 2 2 0 3 -6 3 -6
0 -17 -8 -24 -17z"/>
<path d="M2227 2413 c3 -8 0 -13 -7 -11 -7 2 -15 -3 -17 -9 -3 -7 3 -13 12
-13 14 0 15 -3 5 -14 -9 -12 -8 -15 8 -13 12 1 18 6 15 14 -3 8 -2 13 3 12 28
-5 35 1 20 17 -9 8 -16 19 -16 23 0 4 -6 8 -14 8 -8 0 -12 -6 -9 -14z"/>
<path d="M1020 2416 c0 -2 9 -6 20 -9 11 -3 20 -1 20 4 0 5 -9 9 -20 9 -11 0
-20 -2 -20 -4z"/>
<path d="M1953 2413 c9 -2 23 -2 30 0 6 3 -1 5 -18 5 -16 0 -22 -2 -12 -5z"/>
<path d="M1773 2392 c-3 -7 -3 -15 0 -18 8 -8 77 18 77 28 0 14 -72 5 -77 -10z"/>
<path d="M1860 2398 c0 -11 28 -10 35 1 3 6 -4 9 -15 8 -11 -1 -20 -5 -20 -9z"/>
<path d="M2440 2396 c0 -12 -5 -16 -16 -12 -8 3 -13 2 -10 -3 3 -4 -1 -17 -9
-27 -18 -24 -19 -35 -2 -31 6 1 15 10 20 20 4 11 16 21 27 24 11 3 20 9 20 14
0 5 3 8 8 8 19 -3 33 2 27 11 -4 7 -13 6 -27 -1 -16 -9 -23 -8 -29 2 -7 11 -9
10 -9 -5z"/>
<path d="M1388 2393 c7 -3 16 -2 19 1 4 3 -2 6 -13 5 -11 0 -14 -3 -6 -6z"/>
<path d="M624 2364 c1 -16 7 -24 19 -24 13 0 17 6 15 22 -4 31 -36 33 -34 2z"/>
<path d="M1716 2378 c6 -18 -28 -43 -41 -30 -4 4 -2 -3 4 -16 12 -22 49 -27
67 -9 4 4 16 7 26 7 19 0 26 -34 8 -43 -6 -3 -5 -4 2 -3 7 1 14 15 16 29 3 23
0 27 -22 27 -15 0 -32 10 -45 28 -12 15 -18 19 -15 10z m28 -37 c3 -5 -6 -11
-19 -14 -27 -5 -44 8 -23 16 21 8 36 8 42 -2z"/>
<path d="M968 2373 c6 -2 18 -2 25 0 6 3 1 5 -13 5 -14 0 -19 -2 -12 -5z"/>
<path d="M1111 2364 c0 -11 3 -14 6 -6 3 7 2 16 -1 19 -3 4 -6 -2 -5 -13z"/>
<path d="M1361 2364 c0 -11 3 -14 6 -6 3 7 2 16 -1 19 -3 4 -6 -2 -5 -13z"/>
<path d="M1865 2365 l-30 -15 35 6 c19 4 42 10 50 15 27 15 -22 10 -55 -6z"/>
<path d="M381 2340 c-18 -16 -27 -18 -37 -9 -9 7 -14 8 -14 1 0 -12 24 -22 51
-22 17 0 21 6 18 26 0 4 5 11 13 15 7 5 9 9 3 9 -5 -1 -21 -10 -34 -20z"/>
<path d="M870 2341 c0 -20 17 -31 36 -24 7 2 10 13 7 24 -7 25 -43 25 -43 0z"/>
<path d="M1629 2343 c-13 -16 -12 -17 4 -4 9 7 17 15 17 17 0 8 -8 3 -21 -13z"/>
<path d="M1406 2335 c-3 -8 -1 -15 4 -15 6 0 10 7 10 15 0 8 -2 15 -4 15 -2 0
-6 -7 -10 -15z"/>
<path d="M420 2323 c-13 -15 -12 -16 4 -10 10 4 20 7 22 7 2 0 4 5 4 10 0 15
-13 12 -30 -7z"/>
<path d="M1536 2323 c-6 -14 -5 -15 5 -6 7 7 10 15 7 18 -3 3 -9 -2 -12 -12z"/>
<path d="M935 2320 c-3 -5 -2 -10 4 -10 5 0 13 5 16 10 3 6 2 10 -4 10 -5 0
-13 -4 -16 -10z"/>
<path d="M1088 2322 c18 -12 4 -41 -24 -48 -14 -4 -21 -11 -17 -18 3 -6 -3 -3
-14 7 -25 22 -37 10 -18 -17 8 -11 21 -16 30 -13 17 7 20 -10 5 -33 -8 -13
-10 -12 -10 3 0 18 -10 20 -59 11 -18 -4 -31 -13 -31 -21 0 -11 7 -13 24 -9
13 3 35 2 48 -3 17 -7 18 -10 6 -10 -38 -2 -92 -91 -55 -91 8 0 20 -7 27 -15
7 -8 16 -12 21 -9 13 8 11 42 -3 47 -7 2 -10 8 -6 12 7 7 40 -18 35 -26 -1 -3
3 2 9 9 7 7 19 9 30 5 18 -7 18 -6 1 11 -14 14 -15 21 -6 32 10 12 9 13 -5 8
-21 -8 -21 4 0 27 9 10 18 37 19 59 2 35 15 72 15 42 0 -18 30 -41 45 -36 23
9 18 21 -7 20 -18 -1 -25 7 -33 32 -5 18 -16 32 -25 32 -11 0 -12 -2 -2 -8z"/>
<path d="M1973 2323 c8 -7 77 -6 85 2 3 3 -16 5 -43 5 -27 0 -45 -3 -42 -7z"/>
<path d="M1210 2305 c-7 -9 -8 -15 -2 -15 5 0 12 7 16 15 3 8 4 15 2 15 -2 0
-9 -7 -16 -15z"/>
<path d="M1863 2303 c9 -2 23 -2 30 0 6 3 -1 5 -18 5 -16 0 -22 -2 -12 -5z"/>
<path d="M1613 2283 c9 -2 23 -2 30 0 6 3 -1 5 -18 5 -16 0 -22 -2 -12 -5z"/>
<path d="M2131 2274 c0 -11 3 -14 6 -6 3 7 2 16 -1 19 -3 4 -6 -2 -5 -13z"/>
<path d="M2181 2267 c-1 -28 -2 -29 -47 -22 -27 3 -43 2 -40 -4 3 -5 21 -9 38
-9 41 0 130 -16 225 -41 69 -18 71 -18 76 0 6 22 0 29 -24 29 -10 0 -22 8 -28
17 -8 16 -10 14 -16 -10 -4 -15 -11 -27 -16 -27 -12 0 -11 7 1 31 8 14 7 19
-2 20 -7 0 -4 4 7 9 16 7 14 9 -15 9 -24 1 -31 -2 -21 -8 17 -11 7 -41 -13
-41 -21 0 -26 25 -10 49 14 20 14 21 -11 21 -15 0 -24 -4 -20 -10 3 -5 2 -10
-4 -10 -5 0 -13 5 -16 10 -11 18 -36 -10 -29 -33 4 -14 2 -18 -7 -15 -8 3 -17
18 -20 34 l-7 29 -1 -28z m214 -57 c3 -5 -1 -10 -9 -10 -9 0 -16 5 -16 10 0 6
4 10 9 10 6 0 13 -4 16 -10z"/>
<path d="M1205 2271 c-3 -6 3 -9 14 -8 11 0 17 5 15 9 -7 11 -22 10 -29 -1z"/>
<path d="M865 2240 c-8 -25 1 -40 24 -40 14 0 17 -10 18 -55 2 -65 9 -81 29
-64 16 13 19 49 5 49 -6 0 -7 15 -4 34 4 28 2 34 -16 39 -11 3 -25 17 -31 31
-11 31 -17 32 -25 6z m75 -130 c0 -5 -2 -10 -4 -10 -3 0 -8 5 -11 10 -3 6 -1
10 4 10 6 0 11 -4 11 -10z"/>
<path d="M1304 2236 c1 -15 -5 -21 -19 -21 -11 0 -26 -6 -33 -12 -16 -16 -32
-17 -32 -2 0 6 -11 8 -29 4 -20 -4 -34 -1 -45 10 -13 14 -18 14 -29 3 -23 -23
-25 -42 -5 -63 14 -14 18 -15 13 -4 -8 20 24 56 35 39 4 -6 15 -8 26 -4 10 3
4 -3 -13 -15 -18 -11 -33 -23 -33 -26 0 -4 10 1 22 9 27 19 89 23 70 4 -22
-22 -13 -26 21 -9 24 11 32 21 29 34 -3 11 1 17 12 17 9 0 16 5 16 10 0 6 11
10 25 10 18 0 25 5 25 19 0 15 -7 19 -28 19 -22 -1 -28 -6 -28 -22z"/>
<path d="M1677 2249 c7 -7 15 -10 18 -7 3 3 -2 9 -12 12 -14 6 -15 5 -6 -5z"/>
<path d="M2400 2255 c0 -2 14 -14 31 -26 30 -21 31 -21 20 -2 -8 17 -51 40
-51 28z"/>
<path d="M718 2239 c-10 -5 -18 -19 -18 -29 0 -13 -7 -20 -20 -20 -16 0 -20
-7 -20 -35 0 -19 -5 -35 -10 -35 -13 0 10 -38 26 -44 8 -3 11 7 10 26 0 17 5
33 12 35 9 4 11 -2 6 -21 -6 -24 -3 -26 23 -26 16 0 34 -5 41 -12 12 -12 17 3
13 44 -1 9 3 19 9 23 5 3 10 17 10 30 0 18 -4 22 -20 18 -14 -4 -20 -14 -20
-32 0 -38 -12 -52 -28 -35 -11 12 -10 14 3 14 12 0 15 9 14 38 -2 20 -1 43 2
51 5 18 -11 23 -33 10z"/>
<path d="M1430 2238 c0 -10 7 -18 16 -18 10 0 13 -6 9 -19 -4 -13 0 -20 17
-24 26 -7 38 1 19 12 -7 5 -11 12 -9 16 1 4 -6 13 -17 19 -11 6 -23 16 -27 21
-4 6 -8 2 -8 -7z"/>
<path d="M1558 2243 c7 -3 16 -2 19 1 4 3 -2 6 -13 5 -11 0 -14 -3 -6 -6z"/>
<path d="M1583 2233 c-20 -7 -15 -30 7 -36 13 -3 24 1 30 13 7 14 5 19 -8 22
-9 3 -23 3 -29 1z"/>
<path d="M610 2223 c0 -6 -12 -13 -27 -15 -18 -2 -29 -10 -31 -22 -3 -15 1
-18 22 -14 22 5 26 2 26 -19 0 -18 5 -24 17 -21 23 4 28 58 8 84 -8 10 -15 14
-15 7z"/>
<path d="M1388 2223 c6 -2 18 -2 25 0 6 3 1 5 -13 5 -14 0 -19 -2 -12 -5z"/>
<path d="M1355 2201 c-4 -7 -13 -10 -21 -7 -9 4 -14 -2 -14 -15 0 -19 1 -19
16 -5 20 21 34 20 35 -1 0 -10 3 -13 5 -6 8 18 -11 49 -21 34z"/>
<path d="M1640 2206 c0 -2 7 -7 16 -10 8 -3 12 -2 9 4 -6 10 -25 14 -25 6z"/>
<path d="M500 2190 c-17 -11 -22 -40 -7 -40 7 0 4 -7 -6 -14 -16 -12 -16 -14
-1 -20 22 -8 52 -8 58 2 2 4 -3 24 -13 44 -12 27 -20 35 -31 28z"/>
<path d="M1765 2190 c-3 -5 -2 -10 4 -10 5 0 13 5 16 10 3 6 2 10 -4 10 -5 0
-13 -4 -16 -10z"/>
<path d="M2020 2192 c0 -4 18 -6 40 -4 22 2 40 6 40 8 0 2 -18 4 -40 4 -22 0
-40 -3 -40 -8z"/>
<path d="M2561 2188 c0 -9 -7 -18 -13 -21 -10 -4 -10 -7 -1 -17 10 -11 13 -10
19 3 3 9 4 24 1 34 -4 15 -5 15 -6 1z"/>
<path d="M1418 2183 c7 -3 16 -2 19 1 4 3 -2 6 -13 5 -11 0 -14 -3 -6 -6z"/>
<path d="M2260 2169 c0 -18 42 -99 51 -99 5 0 8 22 7 49 -2 41 -6 51 -23 55
-29 8 -35 7 -35 -5z"/>
<path d="M420 2159 c0 -5 5 -7 10 -4 6 3 10 8 10 11 0 2 -4 4 -10 4 -5 0 -10
-5 -10 -11z"/>
<path d="M1630 2158 c0 -4 6 -8 14 -8 8 0 17 4 20 8 2 4 -4 8 -15 8 -10 0 -19
-4 -19 -8z"/>
<path d="M2085 2160 c-29 -8 -28 -8 8 -7 21 1 41 5 43 9 6 9 -9 9 -51 -2z"/>
<path d="M1523 2140 c-7 -25 -28 -26 -43 -2 -10 15 -11 15 -6 0 2 -9 -2 -19
-10 -22 -19 -7 -18 -26 4 -42 21 -16 36 -18 27 -4 -8 13 14 42 26 34 5 -3 9 1
10 8 0 7 2 21 4 31 5 24 -6 22 -12 -3z"/>
<path d="M1694 2146 c-4 -9 -13 -15 -20 -12 -7 3 -16 1 -19 -3 -2 -5 4 -11 15
-14 14 -3 24 1 31 15 6 11 8 22 5 25 -3 3 -8 -2 -12 -11z"/>
<path d="M806 2133 c-3 -4 -6 -14 -6 -24 0 -24 27 -32 39 -11 11 18 12 16 16
-43 4 -71 4 -72 15 -55 5 8 10 10 10 4 0 -7 8 -11 18 -10 18 1 32 14 32 31 0
6 -4 3 -10 -5 -7 -12 -13 -12 -32 -1 -24 12 -36 51 -17 51 6 0 7 5 4 10 -3 6
-1 10 4 10 6 0 11 -5 11 -12 0 -6 2 -9 5 -7 2 3 1 18 -3 34 -7 25 -14 29 -44
31 -20 2 -39 0 -42 -3z"/>
<path d="M1310 2136 c0 -10 28 -13 41 -5 10 6 7 9 -13 9 -16 0 -28 -2 -28 -4z"/>
<path d="M1378 2133 c6 -2 18 -2 25 0 6 3 1 5 -13 5 -14 0 -19 -2 -12 -5z"/>
<path d="M1428 2133 c6 -2 18 -2 25 0 6 3 1 5 -13 5 -14 0 -19 -2 -12 -5z"/>
<path d="M2160 2111 c0 -27 -21 -37 -35 -18 -15 21 -26 22 -19 2 4 -10 0 -15
-12 -16 -15 0 -15 -2 4 -10 13 -5 28 -7 33 -3 5 3 15 2 22 -3 6 -4 19 -8 27
-9 55 -4 55 -4 40 -14 -9 -6 -10 -10 -3 -10 24 0 23 20 -1 31 -24 11 -24 13
-10 40 14 29 14 29 -16 29 -23 0 -30 -4 -30 -19z"/>
<path d="M590 2095 c0 -14 4 -25 9 -25 5 0 16 -2 24 -5 10 -5 13 1 9 25 -6 39
-42 44 -42 5z"/>
<path d="M1215 2110 c-19 -8 -19 -9 3 -9 12 -1 22 4 22 9 0 6 -1 10 -2 9 -2 0
-12 -4 -23 -9z"/>
<path d="M2058 2113 c-29 -4 -36 -17 -17 -29 6 -3 21 3 32 15 12 11 19 20 17
20 -3 -1 -17 -4 -32 -6z"/>
<path d="M1710 2090 c0 -5 -11 -12 -24 -16 -14 -3 -27 -13 -31 -21 -4 -12 -2
-13 8 -5 10 8 17 8 24 1 8 -8 16 -8 30 1 15 10 15 11 1 6 -10 -3 -20 0 -24 6
-4 7 -3 8 4 4 7 -4 12 -2 12 4 0 6 4 8 10 5 6 -3 7 1 4 9 -7 18 -14 21 -14 6z"/>
<path d="M1875 2090 c-3 -5 -1 -10 4 -10 6 0 11 5 11 10 0 6 -2 10 -4 10 -3 0
-8 -4 -11 -10z"/>
<path d="M1076 2078 c3 -4 11 -5 19 -1 21 7 19 12 -4 10 -11 0 -18 -5 -15 -9z"/>
<path d="M1320 2080 c-9 -6 -10 -10 -3 -10 6 0 15 5 18 10 8 12 4 12 -15 0z"/>
<path d="M705 2070 c-3 -5 1 -10 10 -10 9 0 13 5 10 10 -3 6 -8 10 -10 10 -2
0 -7 -4 -10 -10z"/>
<path d="M1578 2073 c7 -3 16 -2 19 1 4 3 -2 6 -13 5 -11 0 -14 -3 -6 -6z"/>
<path d="M600 2051 c0 -5 7 -16 15 -24 10 -10 13 -25 9 -45 -4 -19 -1 -32 7
-37 8 -6 11 -4 7 6 -4 11 2 15 21 17 20 1 23 0 11 -8 -13 -9 -13 -10 0 -11 10
0 8 -3 -5 -9 -13 -6 -15 -9 -5 -9 21 -1 33 10 48 39 l12 25 -5 -29 c-4 -19 -1
-32 7 -37 10 -7 9 -9 -3 -9 -18 0 -31 -41 -19 -61 11 -17 30 -1 30 26 0 12 7
26 16 29 8 3 12 2 9 -4 -8 -13 6 -13 25 0 13 8 11 11 -7 16 -18 5 -22 11 -17
30 4 15 2 24 -6 24 -7 0 -9 8 -5 19 10 32 -3 47 -41 47 -30 0 -33 -2 -20 -12
26 -19 19 -39 -15 -41 -26 -2 -29 1 -24 17 4 11 2 20 -4 20 -5 0 -17 7 -25 16
-9 8 -16 11 -16 5z"/>
<path d="M810 2045 c0 -8 5 -15 10 -15 6 0 10 7 10 15 0 8 -4 15 -10 15 -5 0
-10 -7 -10 -15z"/>
<path d="M903 2053 c-14 -5 -18 -23 -5 -23 5 0 16 6 26 13 19 14 6 19 -21 10z"/>
<path d="M760 2025 c0 -18 5 -25 20 -25 24 0 28 35 4 44 -23 9 -24 8 -24 -19z"/>
<path d="M953 2037 c-3 -5 4 -19 17 -29 22 -18 24 -18 33 -3 15 27 -33 59 -50
32z"/>
<path d="M1770 2011 l-35 -36 23 -23 c24 -23 42 -22 42 4 0 8 5 14 12 14 6 0
3 6 -8 14 -17 13 -17 18 -6 36 21 34 10 30 -28 -9z"/>
<path d="M1958 2043 c6 -2 18 -2 25 0 6 3 1 5 -13 5 -14 0 -19 -2 -12 -5z"/>
<path d="M1421 2029 c-1 -22 7 -28 30 -22 10 3 19 13 18 22 0 10 -2 11 -6 4
-2 -7 -11 -13 -18 -13 -7 0 -16 6 -18 13 -4 8 -6 6 -6 -4z"/>
<path d="M570 2019 c0 -5 5 -7 10 -4 6 3 10 8 10 11 0 2 -4 4 -10 4 -5 0 -10
-5 -10 -11z"/>
<path d="M2098 2013 c7 -3 16 -2 19 1 4 3 -2 6 -13 5 -11 0 -14 -3 -6 -6z"/>
<path d="M930 1996 c0 -2 7 -7 16 -10 8 -3 12 -2 9 4 -6 10 -25 14 -25 6z"/>
<path d="M1960 1987 c0 -10 7 -13 20 -10 15 4 20 0 20 -15 0 -24 16 -37 25
-22 3 5 1 10 -4 10 -18 0 -12 28 7 33 11 3 7 5 -10 6 -14 0 -33 4 -42 7 -10 4
-16 1 -16 -9z"/>
<path d="M806 1973 c-6 -14 -5 -15 5 -6 7 7 10 15 7 18 -3 3 -9 -2 -12 -12z"/>
<path d="M1089 1973 c-13 -16 -12 -17 4 -4 9 7 17 15 17 17 0 8 -8 3 -21 -13z"/>
<path d="M560 1970 c0 -5 7 -10 16 -10 8 0 12 5 9 10 -3 6 -10 10 -16 10 -5 0
-9 -4 -9 -10z"/>
<path d="M900 1970 c13 -8 12 -10 -2 -10 -10 0 -18 -4 -18 -10 0 -6 9 -6 23
-1 14 6 30 6 38 0 16 -10 46 -12 36 -2 -4 3 -2 12 4 20 14 16 5 17 -23 2 -14
-8 -23 -8 -31 0 -6 6 -18 11 -26 11 -14 0 -14 -1 -1 -10z"/>
<path d="M1686 1954 c-8 -22 -4 -25 11 -9 7 8 9 16 4 19 -5 3 -12 -1 -15 -10z"/>
<path d="M1839 1953 c-13 -16 -12 -17 4 -4 9 7 17 15 17 17 0 8 -8 3 -21 -13z"/>
<path d="M500 1946 c0 -23 16 -27 17 -5 1 10 -2 19 -8 19 -5 0 -9 -6 -9 -14z"/>
<path d="M1642 1948 c-15 -15 -15 -28 0 -28 6 0 8 3 5 7 -4 3 -2 12 4 20 14
16 7 17 -9 1z"/>
<path d="M1928 1953 c7 -3 16 -2 19 1 4 3 -2 6 -13 5 -11 0 -14 -3 -6 -6z"/>
<path d="M371 1947 c2 -2 12 -9 22 -16 14 -11 17 -11 17 1 0 7 -10 14 -21 15
-12 1 -20 1 -18 0z"/>
<path d="M815 1930 c-3 -5 3 -15 15 -22 11 -7 20 -23 20 -35 0 -13 5 -23 10
-23 6 0 10 8 10 19 0 22 -47 75 -55 61z"/>
<path d="M2065 1930 c3 -5 14 -10 23 -10 15 0 15 2 2 10 -20 13 -33 13 -25 0z"/>
<path d="M2150 1920 c17 -11 47 -14 36 -3 -3 4 -17 8 -29 10 -17 2 -19 1 -7
-7z"/>
<path d="M930 1901 c0 -11 -8 -22 -17 -24 -11 -3 -6 -5 12 -7 23 -1 26 -3 12
-9 -18 -6 -18 -8 2 -31 11 -14 21 -23 21 -20 0 3 2 29 4 58 3 45 1 52 -15 52
-12 0 -19 -7 -19 -19z"/>
<path d="M1663 1905 c0 -8 4 -15 9 -15 4 0 8 4 8 9 0 6 -4 12 -8 15 -5 3 -9
-1 -9 -9z"/>
<path d="M2115 1910 c3 -5 14 -10 23 -10 15 0 15 2 2 10 -20 13 -33 13 -25 0z"/>
<path d="M508 1903 c7 -3 16 -2 19 1 4 3 -2 6 -13 5 -11 0 -14 -3 -6 -6z"/>
<path d="M1250 1902 c0 -6 -8 -13 -17 -15 -16 -4 -16 -5 -1 -6 18 -1 34 16 24
26 -3 4 -6 1 -6 -5z"/>
<path d="M325 1890 c3 -5 11 -10 16 -10 6 0 7 5 4 10 -3 6 -11 10 -16 10 -6 0
-7 -4 -4 -10z"/>
<path d="M540 1894 c0 -19 23 -31 58 -31 37 0 37 0 16 21 -17 17 -39 22 -30 7
11 -17 -19 -18 -31 -2 -7 9 -13 11 -13 5z"/>
<path d="M1311 1884 c-24 -18 -26 -41 -6 -68 17 -23 20 -14 5 15 -9 16 -7 19
12 20 13 1 34 2 48 2 14 1 28 -2 31 -6 3 -4 46 -4 95 1 81 9 93 8 134 -11 25
-12 53 -28 63 -36 32 -27 31 -1 -2 29 -54 50 -68 55 -180 67 -45 5 -56 3 -68
-13 -10 -14 -13 -15 -13 -3 0 21 -89 23 -119 3z"/>
<path d="M2295 1885 c22 -8 45 -14 50 -14 18 1 -49 28 -70 28 -11 0 -2 -6 20
-14z"/>
<path d="M281 1874 c0 -11 3 -14 6 -6 3 7 2 16 -1 19 -3 4 -6 -2 -5 -13z"/>
<path d="M753 1883 c-7 -2 -13 -11 -13 -19 0 -8 -4 -14 -9 -14 -12 0 -5 -50
10 -64 9 -8 10 -6 5 9 -5 13 -1 24 13 35 34 27 30 68 -6 53z"/>
<path d="M2188 1883 c7 -3 16 -2 19 1 4 3 -2 6 -13 5 -11 0 -14 -3 -6 -6z"/>
<path d="M365 1870 c-8 -13 5 -13 25 0 13 8 13 10 -2 10 -9 0 -20 -4 -23 -10z"/>
<path d="M800 1869 c0 -5 5 -7 10 -4 6 3 10 8 10 11 0 2 -4 4 -10 4 -5 0 -10
-5 -10 -11z"/>
<path d="M1800 1868 c0 -9 5 -20 10 -23 13 -8 13 5 0 25 -8 13 -10 13 -10 -2z"/>
<path d="M366 1851 c-13 -5 -16 -10 -9 -14 7 -4 15 -2 18 4 4 5 14 8 22 5 8
-3 11 -1 8 4 -7 11 -12 12 -39 1z"/>
<path d="M440 1840 c-18 -12 -2 -12 25 0 13 6 15 9 5 9 -8 0 -22 -4 -30 -9z"/>
<path d="M1125 1841 c-3 -5 -27 -17 -53 -27 -57 -22 -102 -53 -102 -71 0 -21
-27 -15 -33 7 -3 11 -1 20 4 20 5 0 9 -6 9 -12 0 -9 4 -8 10 2 16 24 12 40
-10 40 -11 0 -20 7 -20 15 0 8 -5 15 -11 15 -5 0 -8 -4 -5 -9 3 -5 -3 -11 -14
-14 -11 -3 -20 -10 -20 -17 0 -6 4 -9 9 -5 11 6 20 -6 26 -35 2 -11 0 -20 -6
-20 -5 0 -9 -7 -9 -15 0 -8 -5 -15 -12 -15 -6 0 -8 -3 -5 -6 4 -4 13 -1 21 5
8 7 16 8 19 4 5 -9 -18 -34 -25 -27 -3 2 -5 -3 -5 -11 0 -9 6 -14 14 -11 7 3
12 0 10 -7 -1 -7 6 -11 17 -10 13 1 15 -2 7 -10 -16 -16 -14 -23 14 -53 14
-15 25 -21 25 -14 0 9 12 11 43 6 70 -11 143 31 162 94 l8 25 8 -23 c15 -41
26 -23 18 31 -10 66 -30 127 -41 127 -11 0 -10 -17 1 -38 16 -30 20 -86 8
-102 -7 -8 -29 -26 -49 -40 -21 -14 -38 -34 -39 -45 -1 -16 -2 -17 -6 -3 -4
15 -8 15 -45 2 -38 -13 -43 -13 -57 3 -17 19 -17 58 0 47 6 -3 20 3 32 13 12
11 30 23 40 26 22 8 22 26 1 34 -10 4 -22 -1 -30 -11 -7 -10 -18 -15 -24 -11
-6 3 -10 3 -9 -2 7 -38 -16 -45 -25 -7 -8 30 11 49 57 59 55 13 127 61 127 86
0 6 5 7 10 4 6 -3 10 -1 10 4 0 13 -47 15 -55 2z"/>
<path d="M1861 1829 c9 -21 16 -25 33 -21 20 6 20 6 1 10 -11 3 -25 12 -32 21
-11 13 -11 12 -2 -10z"/>
<path d="M812 1817 c9 -18 11 -18 29 -1 25 23 24 25 -10 22 -26 -2 -28 -5 -19
-21z"/>
<path d="M1531 1812 c-6 -9 -11 -12 -11 -4 0 20 -30 14 -30 -6 0 -14 8 -19 33
-19 51 -1 87 -14 113 -40 14 -14 28 -23 31 -19 12 12 -27 52 -75 78 -47 26
-52 26 -61 10z"/>
<path d="M1741 1814 c0 -11 3 -14 6 -6 3 7 2 16 -1 19 -3 4 -6 -2 -5 -13z"/>
<path d="M1447 1814 c-14 -14 -7 -35 11 -32 9 2 17 10 17 17 0 16 -18 25 -28
15z"/>
<path d="M628 1793 c7 -3 16 -2 19 1 4 3 -2 6 -13 5 -11 0 -14 -3 -6 -6z"/>
<path d="M675 1790 c3 -5 13 -10 21 -10 8 0 12 5 9 10 -3 6 -13 10 -21 10 -8
0 -12 -4 -9 -10z"/>
<path d="M795 1787 c-4 -10 -5 -21 -1 -24 10 -10 18 4 13 24 -4 17 -4 17 -12
0z"/>
<path d="M1395 1781 c-4 -13 -12 -17 -25 -14 -16 4 -20 0 -20 -20 0 -14 -4
-27 -10 -29 -13 -4 57 -78 75 -78 7 0 16 6 18 13 3 7 6 4 6 -7 1 -15 6 -17 33
-12 28 6 91 31 138 55 8 5 26 4 39 -1 13 -5 29 -6 35 -4 6 3 1 8 -11 11 -13 4
-23 12 -23 17 0 12 -82 0 -91 -13 -8 -13 -117 -31 -147 -24 -15 3 -36 12 -46
20 -20 15 -20 15 0 32 11 10 29 23 40 29 10 6 20 19 22 28 5 23 -25 20 -33 -3z"/>
<path d="M1790 1771 c0 -11 4 -22 9 -25 4 -3 6 6 3 19 -5 30 -12 33 -12 6z"/>
<path d="M2011 1774 c0 -11 3 -14 6 -6 3 7 2 16 -1 19 -3 4 -6 -2 -5 -13z"/>
<path d="M2107 1783 c-4 -3 -7 -16 -7 -27 0 -17 2 -18 10 -6 7 10 12 12 18 4
4 -6 17 -14 30 -18 18 -6 22 -3 22 12 0 13 -11 24 -31 31 -38 13 -34 13 -42 4z"/>
<path d="M660 1763 c0 -6 -8 -10 -17 -8 -10 1 -12 0 -5 -2 6 -3 12 -10 12 -16
0 -7 5 -4 11 6 6 10 8 21 5 24 -3 4 -6 2 -6 -4z"/>
<path d="M736 1745 c-2 -7 2 -16 10 -19 14 -5 14 -8 0 -22 -18 -17 -22 -54 -6
-54 6 0 9 -3 9 -7 -4 -22 2 -43 12 -43 5 0 8 4 5 8 -3 5 3 18 13 29 16 17 17
22 5 38 -19 26 -17 34 6 28 18 -5 19 -2 12 18 -10 27 -58 44 -66 24z"/>
<path d="M2231 1753 c4 -27 -3 -42 -16 -37 -8 4 -15 2 -15 -4 0 -5 9 -12 20
-15 15 -4 18 -10 13 -24 -3 -10 -3 -15 2 -11 11 10 14 98 3 98 -4 0 -7 -3 -7
-7z"/>
<path d="M1085 1730 c-12 -20 8 -30 48 -23 37 6 52 23 20 23 -10 0 -28 3 -39
6 -12 3 -25 0 -29 -6z"/>
<path d="M1290 1736 c0 -2 7 -7 16 -10 8 -3 12 -2 9 4 -6 10 -25 14 -25 6z"/>
<path d="M2070 1736 c0 -2 7 -9 15 -16 9 -7 15 -8 15 -2 0 5 -7 12 -15 16 -8
3 -15 4 -15 2z"/>
<path d="M2287 1723 c-4 -3 -7 -17 -7 -30 0 -37 35 -31 38 7 2 28 -14 41 -31
23z"/>
<path d="M1780 1705 c0 -8 4 -15 10 -15 5 0 7 7 4 15 -4 8 -8 15 -10 15 -2 0
-4 -7 -4 -15z"/>
<path d="M2350 1710 c8 -5 20 -10 25 -10 6 0 3 5 -5 10 -8 5 -19 10 -25 10 -5
0 -3 -5 5 -10z"/>
<path d="M275 1700 c-3 -5 -2 -10 4 -10 5 0 13 5 16 10 3 6 2 10 -4 10 -5 0
-13 -4 -16 -10z"/>
<path d="M483 1703 c-10 -3 -10 -10 -2 -24 5 -11 7 -24 4 -29 -3 -6 1 -10 10
-10 13 0 14 4 5 20 -6 12 -7 20 -1 20 5 0 11 -4 13 -10 4 -13 43 -17 45 -5 1
6 -6 9 -15 7 -14 -2 -14 0 3 14 20 16 20 16 -2 9 -14 -4 -23 -2 -23 4 0 11
-16 13 -37 4z"/>
<path d="M613 1703 c9 -2 25 -2 35 0 9 3 1 5 -18 5 -19 0 -27 -2 -17 -5z"/>
<path d="M648 1683 c7 -3 16 -2 19 1 4 3 -2 6 -13 5 -11 0 -14 -3 -6 -6z"/>
<path d="M2175 1680 c3 -5 10 -10 16 -10 5 0 9 5 9 10 0 6 -7 10 -16 10 -8 0
-12 -4 -9 -10z"/>
<path d="M847 1674 c-3 -3 -3 -12 0 -20 3 -8 2 -14 -3 -13 -21 4 -35 -2 -29
-12 4 -6 10 -8 13 -5 3 3 11 1 19 -6 11 -9 13 -5 11 25 -2 40 -2 40 -11 31z"/>
<path d="M1919 1648 c-1 -2 -2 -15 -3 -30 -2 -23 2 -28 20 -28 19 0 33 22 34
53 0 6 -48 11 -51 5z"/>
<path d="M2245 1640 c3 -5 10 -10 16 -10 5 0 9 5 9 10 0 6 -7 10 -16 10 -8 0
-12 -4 -9 -10z"/>
<path d="M695 1630 c3 -5 11 -10 16 -10 6 0 7 5 4 10 -3 6 -11 10 -16 10 -6 0
-7 -4 -4 -10z"/>
<path d="M791 1628 c0 -9 -10 -24 -22 -32 -20 -14 -19 -36 2 -36 6 0 8 4 4 9
-3 6 2 14 11 19 10 6 14 17 11 33 -2 13 -5 16 -6 7z"/>
<path d="M1203 1610 c2 -24 21 -21 25 3 2 10 -3 17 -12 17 -9 0 -14 -8 -13
-20z"/>
<path d="M1440 1591 c0 -25 6 -27 13 -6 4 8 2 17 -3 20 -6 4 -10 -3 -10 -14z"/>
<path d="M542 1575 c-6 -14 -17 -25 -24 -25 -10 0 -10 -2 0 -8 14 -9 6 -42
-10 -42 -5 0 -7 4 -4 9 6 9 -44 35 -52 26 -3 -3 4 -24 16 -48 19 -38 22 -40
28 -20 3 12 15 25 25 28 10 4 19 13 19 21 0 8 10 14 25 14 20 0 25 5 25 24 0
13 6 27 13 29 7 4 6 6 -5 6 -9 1 -23 3 -30 6 -9 4 -19 -4 -26 -20z"/>
<path d="M1838 1593 c7 -3 16 -2 19 1 4 3 -2 6 -13 5 -11 0 -14 -3 -6 -6z"/>
<path d="M320 1579 c0 -7 -10 -9 -25 -5 -18 5 -25 2 -25 -8 0 -9 13 -14 40
-14 22 0 40 4 40 9 0 6 -4 7 -10 4 -6 -3 -7 1 -4 9 3 9 1 16 -5 16 -6 0 -11
-5 -11 -11z"/>
<path d="M360 1565 c0 -8 4 -15 10 -15 5 0 7 7 4 15 -4 8 -8 15 -10 15 -2 0
-4 -7 -4 -15z"/>
<path d="M854 1554 c-5 -18 -1 -31 11 -42 10 -10 15 -11 11 -4 -4 6 -2 12 3
12 6 0 11 11 11 24 0 20 4 23 23 20 20 -4 21 -4 2 5 -35 17 -54 12 -61 -15z"/>
<path d="M1199 1558 c-1 -13 -1 -31 0 -40 1 -10 -4 -18 -11 -18 -11 0 -11 -2
0 -9 7 -4 12 -14 10 -21 -2 -7 2 -14 8 -16 6 -3 11 15 12 43 2 27 5 56 8 66 4
11 0 17 -10 17 -10 0 -16 -9 -17 -22z"/>
<path d="M2010 1561 c0 -23 58 -47 74 -31 13 13 -10 35 -46 44 -23 5 -28 3
-28 -13z"/>
<path d="M2365 1570 c3 -5 8 -10 11 -10 2 0 4 5 4 10 0 6 -5 10 -11 10 -5 0
-7 -4 -4 -10z"/>
<path d="M420 1549 c0 -5 5 -7 10 -4 6 3 10 8 10 11 0 2 -4 4 -10 4 -5 0 -10
-5 -10 -11z"/>
<path d="M1002 1548 c-1 -9 -11 -23 -22 -31 -17 -12 -18 -16 -6 -20 8 -3 18
-25 23 -49 12 -61 19 -35 12 47 -3 39 -6 62 -7 53z"/>
<path d="M751 1528 c-11 -29 -11 -29 25 -19 16 6 21 10 11 10 -10 1 -16 5 -12
10 3 5 1 12 -5 16 -6 3 -14 -4 -19 -17z"/>
<path d="M910 1505 c0 -34 -4 -45 -16 -45 -8 0 -12 5 -9 10 3 6 2 10 -3 10 -6
0 -13 -12 -16 -26 -6 -21 -10 -24 -19 -14 -9 10 -9 14 1 17 15 6 16 43 1 43
-6 0 -9 -6 -6 -14 3 -8 2 -16 -3 -18 -8 -2 -13 -28 -20 -93 0 -5 -7 -1 -15 9
-19 26 -30 14 -14 -15 9 -17 9 -24 0 -27 -6 -2 -11 -8 -11 -13 0 -6 5 -7 11
-4 6 4 9 1 7 -8 -3 -17 40 -59 53 -51 5 3 9 -2 9 -11 0 -9 5 -13 10 -10 6 4 8
15 5 24 -4 14 4 21 35 31 22 7 39 14 38 15 -2 1 -21 6 -42 9 -37 7 -39 6 -25
-10 13 -16 12 -17 -8 -12 -17 4 -20 2 -16 -10 5 -12 2 -14 -11 -9 -10 4 -20 7
-22 7 -10 0 -2 59 14 95 15 32 20 36 25 22 4 -11 3 -16 -3 -12 -15 9 -12 -8 6
-33 21 -30 34 -28 34 7 0 17 6 31 16 35 8 3 13 2 10 -3 -3 -5 1 -11 8 -14 8
-3 17 -1 20 6 2 7 5 4 5 -6 1 -11 11 -27 24 -38 13 -10 17 -18 9 -19 -7 0 -10
-4 -7 -10 3 -5 0 -7 -8 -4 -10 3 -16 -5 -20 -26 -4 -16 -10 -30 -14 -29 -26 4
-48 -15 -50 -42 -1 -16 3 -29 9 -29 6 0 8 -11 6 -25 -3 -13 -1 -26 4 -27 4 -2
10 -18 12 -36 3 -23 1 -32 -10 -32 -22 0 -17 -21 7 -27 14 -4 17 -8 9 -13 -10
-6 -10 -16 0 -45 14 -43 27 -50 64 -35 27 10 28 9 24 -15 -4 -19 -1 -25 13
-25 10 0 24 7 32 15 8 8 17 12 20 9 3 -3 20 -3 37 1 25 5 31 11 27 26 -3 10
-1 19 4 19 5 0 9 -13 9 -30 0 -24 -4 -30 -21 -30 -17 0 -20 -5 -17 -24 3 -15
0 -27 -8 -30 -8 -3 -15 -20 -15 -38 -2 -30 -2 -31 -6 -5 -3 21 -10 27 -29 27
-17 0 -24 -5 -24 -20 0 -11 -7 -23 -15 -26 -24 -10 -18 -34 9 -34 14 0 27 -4
31 -10 3 -5 13 -6 22 -3 12 5 10 -2 -7 -26 -13 -17 -29 -30 -34 -28 -6 2 -18
-10 -27 -27 -16 -28 -16 -32 -2 -43 13 -10 13 -14 2 -26 -8 -8 -21 -16 -29
-20 -10 -4 -8 -6 7 -6 12 -1 24 -7 26 -13 3 -7 6 -2 6 12 1 19 3 22 10 11 8
-12 15 -13 35 -3 19 8 24 18 24 41 -1 17 -4 28 -8 26 -14 -9 -20 26 -9 47 8
15 14 17 22 9 6 -6 18 -11 26 -11 14 1 13 3 -1 14 -10 7 -18 20 -18 28 0 24
94 41 110 20 3 -4 12 -8 20 -10 12 -2 11 1 -2 11 -10 8 -14 18 -10 22 4 4 -3
5 -15 2 -16 -3 -23 -1 -23 9 0 8 -8 14 -19 14 -24 0 -36 50 -15 66 8 6 14 17
14 25 0 12 2 12 9 0 5 -7 13 -11 19 -7 5 3 13 -5 16 -19 7 -29 22 -31 56 -8
22 16 23 16 17 -1 -4 -10 -7 -25 -8 -34 0 -11 -2 -12 -6 -4 -6 14 -23 6 -23
-11 0 -13 63 -17 76 -5 4 4 12 4 18 -1 18 -14 74 -23 80 -13 3 6 -6 15 -22 20
-15 6 -39 22 -53 35 -21 20 -29 23 -39 14 -10 -10 -12 -8 -6 6 8 23 -47 82
-69 73 -12 -4 -15 4 -15 36 0 39 -1 40 -18 25 -16 -15 -19 -15 -30 3 -7 11
-19 20 -27 20 -8 0 -12 6 -9 13 3 8 -2 19 -10 26 -12 10 -18 7 -32 -18 -20
-33 -34 -40 -34 -16 0 8 -8 15 -17 15 -15 0 -16 -2 -3 -10 12 -7 12 -10 1 -10
-7 0 -11 -6 -7 -15 3 -9 0 -15 -10 -15 -11 0 -15 6 -11 20 4 15 0 20 -13 20
-15 0 -18 -6 -15 -29 4 -29 3 -29 -16 -13 -24 21 -24 36 0 59 21 19 15 47 -9
41 -7 -2 -14 4 -15 13 -2 13 3 15 29 10 24 -5 32 -12 34 -34 3 -28 16 -35 28
-16 3 6 14 9 23 6 10 -2 25 2 35 9 22 16 17 50 -7 46 -11 -2 -15 2 -11 12 3 8
1 23 -5 33 -9 17 -10 16 -19 -7 -5 -14 -8 -28 -6 -31 7 -13 -30 -19 -37 -7 -5
8 3 23 21 42 17 15 30 33 30 40 0 22 -17 37 -36 31 -17 -6 -18 -6 -1 5 20 13
23 46 5 52 -8 3 -11 20 -9 46 2 37 0 42 -18 42 -17 0 -20 4 -14 30 5 26 3 30
-16 30 -22 0 -28 14 -11 25 6 4 7 12 3 18 -4 7 -8 17 -9 22 0 6 -2 16 -2 23
-1 6 -11 12 -22 12 -17 0 -20 -7 -20 -45z m15 -75 c3 -5 1 -10 -4 -10 -6 0
-11 5 -11 10 0 6 2 10 4 10 3 0 8 -4 11 -10z m85 -154 c0 -7 -7 -19 -15 -26
-8 -7 -15 -23 -15 -36 0 -12 -4 -26 -10 -29 -6 -3 -7 1 -4 9 3 9 1 16 -5 16
-15 0 -6 60 10 71 21 13 39 11 39 -5z m-65 -76 c3 -6 -1 -7 -9 -4 -18 7 -21
14 -7 14 6 0 13 -4 16 -10z m115 -94 c0 -3 -4 -8 -10 -11 -5 -3 -10 -1 -10 4
0 6 5 11 10 11 6 0 10 -2 10 -4z m58 -127 c10 -1 7 -4 -8 -9 -42 -14 -51 -11
-32 8 9 10 19 14 20 10 2 -4 11 -8 20 -9z m-58 -306 c0 -5 -3 -18 -6 -31 -5
-18 -9 -20 -20 -11 -16 13 -19 43 -4 34 6 -3 10 -1 10 4 0 6 5 11 10 11 6 0
10 -3 10 -7z"/>
<path d="M2132 1523 c2 -13 -3 -18 -21 -17 -22 1 -23 0 -6 -13 24 -17 32 -16
39 2 3 8 15 15 26 15 12 0 20 7 20 18 0 14 -2 15 -10 2 -7 -12 -12 -12 -22 -2
-17 17 -29 15 -26 -5z"/>
<path d="M2490 1529 c0 -5 5 -7 10 -4 6 3 10 8 10 11 0 2 -4 4 -10 4 -5 0 -10
-5 -10 -11z"/>
<path d="M315 1520 c-3 -5 -16 -10 -29 -10 -19 0 -23 -6 -24 -36 -1 -24 3 -34
11 -31 7 2 11 16 9 30 -3 20 1 27 14 27 14 0 15 -3 6 -12 -16 -16 -15 -33 1
-19 8 6 17 8 20 4 4 -3 7 1 7 10 0 10 7 17 16 17 14 0 15 -2 3 -17 -12 -16
-11 -16 8 0 21 18 22 18 33 -2 13 -24 30 -28 30 -6 0 8 -7 15 -15 15 -8 0 -15
5 -15 10 0 6 5 10 10 10 6 0 10 5 10 10 0 6 -8 5 -20 -2 -14 -9 -23 -10 -28
-3 -10 14 -39 17 -47 5z"/>
<path d="M2210 1518 c0 -9 5 -20 10 -23 13 -8 13 5 0 25 -8 13 -10 13 -10 -2z"/>
<path d="M2515 1520 c-3 -5 -1 -10 4 -10 6 0 11 5 11 10 0 6 -2 10 -4 10 -3 0
-8 -4 -11 -10z"/>
<path d="M638 1513 c6 -2 18 -2 25 0 6 3 1 5 -13 5 -14 0 -19 -2 -12 -5z"/>
<path d="M2450 1515 c0 -12 51 -73 66 -79 9 -3 23 -2 31 3 14 7 13 10 -6 16
-14 4 -20 12 -17 22 4 10 0 13 -16 11 -15 -2 -23 2 -23 12 0 8 -8 16 -17 18
-10 2 -18 1 -18 -3z"/>
<path d="M1310 1500 c-8 -5 -10 -10 -5 -10 6 0 17 5 25 10 8 5 11 10 5 10 -5
0 -17 -5 -25 -10z"/>
<path d="M566 1485 c-5 -15 9 -65 18 -65 3 0 3 7 0 15 -4 8 -1 15 5 15 6 0 11
-5 11 -11 0 -5 5 -7 11 -3 7 4 10 1 7 -7 -3 -8 -18 -17 -34 -20 -16 -4 -21 -7
-12 -8 9 0 19 -7 21 -13 4 -10 6 -10 6 0 1 14 81 17 81 2 0 -5 7 -7 15 -4 8 4
15 16 14 28 0 11 -3 15 -6 9 -2 -7 -20 -13 -39 -13 -29 0 -34 3 -34 24 0 18 5
23 23 22 14 -1 22 -7 21 -19 -1 -9 2 -17 7 -17 5 0 9 7 9 16 0 14 3 14 15 4 8
-7 15 -21 15 -31 0 -11 5 -19 10 -19 6 0 10 9 10 20 0 11 5 20 11 20 6 0 9 -7
6 -15 -4 -8 -2 -17 3 -20 6 -4 10 0 10 9 0 8 5 16 12 18 6 2 13 14 15 27 2 13
-1 20 -7 16 -5 -3 -10 -13 -10 -21 0 -18 -15 -18 -34 1 -8 8 -24 15 -35 15
-11 0 -25 8 -30 18 -6 9 -11 11 -11 5 0 -19 -59 -16 -66 2 -8 19 -30 19 -38 0z"/>
<path d="M1880 1490 c0 -5 6 -10 14 -10 8 0 18 5 21 10 3 6 -3 10 -14 10 -12
0 -21 -4 -21 -10z"/>
<path d="M2036 1488 c3 -5 10 -6 15 -3 13 9 11 12 -6 12 -8 0 -12 -4 -9 -9z"/>
<path d="M745 1479 c-4 -6 -5 -13 -2 -16 7 -7 27 6 27 18 0 12 -17 12 -25 -2z"/>
<path d="M2250 1480 c0 -12 28 -25 36 -17 3 3 -4 10 -15 17 -15 7 -21 7 -21 0z"/>
<path d="M370 1446 c0 -19 -5 -36 -12 -38 -8 -3 -8 -9 0 -24 6 -10 12 -14 12
-9 1 6 5 1 10 -10 8 -19 9 -19 9 3 1 22 31 33 31 11 0 -6 7 -9 15 -5 11 4 15
-1 15 -19 0 -14 -4 -25 -8 -25 -5 0 -9 -7 -9 -15 0 -10 8 -13 24 -11 18 4 23
0 24 -17 0 -21 1 -21 9 -2 14 33 11 43 -10 38 -16 -4 -20 0 -20 20 0 14 6 28
13 30 7 4 3 8 -10 12 -13 4 -23 11 -23 15 0 5 -8 6 -19 3 -24 -6 -35 11 -18
29 12 11 10 16 -10 31 l-23 18 0 -35z"/>
<path d="M1356 1450 c-10 -20 -11 -28 -3 -18 7 9 22 15 33 13 10 -2 22 -4 25
-4 11 -2 27 -78 19 -91 -5 -7 -23 -9 -58 -4 -35 4 -59 2 -80 -8 -28 -14 -30
-14 -48 14 -21 31 -34 36 -34 14 0 -8 14 -26 32 -39 29 -23 34 -24 67 -12 39
13 65 14 94 1 26 -12 50 1 44 24 -3 10 0 21 6 23 19 6 -30 97 -52 97 -11 0
-21 6 -24 13 -2 6 -11 -4 -21 -23z"/>
<path d="M316 1448 c3 -4 -2 -8 -11 -8 -13 0 -14 -2 -3 -14 11 -13 15 -13 26
2 16 21 15 29 -3 29 -8 0 -12 -4 -9 -9z"/>
<path d="M2305 1450 c-3 -4 6 -10 20 -12 14 -3 25 -2 25 2 0 11 -39 20 -45 10z"/>
<path d="M2220 1439 c0 -5 5 -7 10 -4 6 3 10 8 10 11 0 2 -4 4 -10 4 -5 0 -10
-5 -10 -11z"/>
<path d="M464 1425 c10 -7 15 -18 11 -24 -3 -6 -3 -11 2 -12 4 0 18 -2 30 -3
16 -2 23 4 28 22 3 13 4 27 0 30 -3 3 -5 0 -5 -6 0 -7 -9 -12 -20 -12 -11 0
-20 5 -20 10 0 6 -10 10 -22 10 -22 -1 -22 -1 -4 -15z"/>
<path d="M1197 1433 c-3 -5 -1 -17 4 -28 8 -21 8 -21 15 13 4 21 -10 31 -19
15z"/>
<path d="M1860 1426 c0 -9 5 -16 10 -16 6 0 10 4 10 9 0 6 -4 13 -10 16 -5 3
-10 -1 -10 -9z"/>
<path d="M2365 1429 c-4 -6 -5 -12 -2 -15 2 -3 7 2 10 11 7 17 1 20 -8 4z"/>
<path d="M1640 1420 c0 -5 5 -10 11 -10 5 0 7 5 4 10 -3 6 -8 10 -11 10 -2 0
-4 -4 -4 -10z"/>
<path d="M2450 1412 c0 -26 11 -34 27 -21 10 9 10 15 2 25 -16 19 -29 17 -29
-4z"/>
<path d="M2290 1411 c0 -6 7 -14 16 -18 9 -3 14 -15 12 -32 -4 -33 22 -40 40
-10 14 23 7 39 -21 43 -8 1 -22 8 -31 15 -11 9 -16 10 -16 2z"/>
<path d="M1907 1383 c-5 -27 9 -47 25 -37 4 3 8 18 8 35 0 37 -26 39 -33 2z"/>
<path d="M285 1390 c-4 -6 -12 -7 -18 -4 -8 5 -8 2 1 -7 10 -11 15 -10 29 4
10 10 12 17 6 17 -7 0 -15 -5 -18 -10z"/>
<path d="M1820 1390 c-9 -6 -10 -10 -3 -10 6 0 18 -3 27 -6 11 -4 16 -1 16 10
0 18 -17 21 -40 6z"/>
<path d="M565 1380 c3 -5 8 -10 11 -10 2 0 4 5 4 10 0 6 -5 10 -11 10 -5 0 -7
-4 -4 -10z"/>
<path d="M508 1363 c6 -2 18 -2 25 0 6 3 1 5 -13 5 -14 0 -19 -2 -12 -5z"/>
<path d="M593 1351 c-2 -26 24 -35 37 -13 8 14 11 14 18 4 7 -11 11 -10 16 4
3 9 4 19 1 22 -3 3 -5 -1 -5 -8 0 -11 -3 -11 -12 -2 -19 19 -54 15 -55 -7z"/>
<path d="M716 1362 c-4 -6 -13 -9 -20 -6 -16 6 -30 -37 -15 -47 8 -5 8 -9 0
-13 -6 -4 -11 -13 -11 -19 0 -7 4 -6 10 3 6 10 10 11 10 3 0 -7 5 -13 10 -13
6 0 10 9 10 21 0 11 5 17 10 14 6 -3 10 3 10 14 0 11 7 24 16 29 11 6 13 11 5
16 -6 4 -11 1 -11 -6 0 -10 -2 -10 -9 1 -6 9 -11 10 -15 3z"/>
<path d="M550 1344 c0 -10 -6 -14 -15 -11 -22 9 -28 -10 -6 -25 16 -11 16 -15
5 -26 -11 -10 -14 -10 -14 -1 0 7 -3 9 -6 6 -4 -4 -1 -13 6 -22 10 -12 10 -15
-4 -15 -12 0 -16 -9 -15 -42 1 -24 3 -36 6 -26 3 12 12 15 33 11 24 -3 29 -1
24 12 -4 8 -1 22 6 30 10 12 10 15 -3 15 -8 0 -18 7 -21 16 -3 8 -2 12 4 9 10
-6 14 21 10 59 -1 12 2 16 11 11 8 -5 10 -4 5 3 -10 17 -26 15 -26 -4z"/>
<path d="M926 1347 c3 -10 9 -15 12 -12 3 3 0 11 -7 18 -10 9 -11 8 -5 -6z"/>
<path d="M1626 1335 c-9 -14 -21 -23 -26 -20 -6 4 -10 1 -10 -5 0 -7 -8 -9
-21 -5 -17 6 -20 3 -17 -16 2 -13 10 -25 19 -27 18 -3 89 65 89 85 0 21 -16
15 -34 -12z"/>
<path d="M2125 1340 c3 -5 11 -10 16 -10 6 0 7 5 4 10 -3 6 -11 10 -16 10 -6
0 -7 -4 -4 -10z"/>
<path d="M345 1318 c-5 -20 -13 -68 -9 -68 1 0 9 -2 17 -5 8 -4 14 0 14 9 0 8
-4 13 -9 10 -4 -3 -8 0 -8 6 0 7 8 9 20 5 16 -5 20 -2 20 15 0 14 -4 19 -12
14 -8 -5 -9 -2 -5 9 4 11 1 17 -9 17 -8 0 -16 -6 -19 -12z"/>
<path d="M1206 1317 c3 -10 9 -15 12 -12 3 3 0 11 -7 18 -10 9 -11 8 -5 -6z"/>
<path d="M2126 1306 c3 -9 11 -16 16 -16 13 0 5 23 -10 28 -7 2 -10 -2 -6 -12z"/>
<path d="M2177 1314 c-8 -8 1 -24 14 -24 5 0 9 7 9 15 0 15 -12 20 -23 9z"/>
<path d="M260 1300 c0 -5 7 -10 16 -10 8 0 12 5 9 10 -3 6 -10 10 -16 10 -5 0
-9 -4 -9 -10z"/>
<path d="M1834 1285 c-3 -14 -9 -25 -13 -25 -3 0 -7 -11 -7 -25 -1 -14 2 -25
7 -25 5 0 9 10 9 21 0 18 2 19 15 9 19 -16 32 -5 37 29 2 17 -3 26 -19 32 -19
7 -24 4 -29 -16z"/>
<path d="M1970 1288 c0 -6 12 -26 26 -45 23 -30 27 -32 41 -17 14 14 13 18
-18 44 -37 32 -49 36 -49 18z"/>
<path d="M414 1275 c-18 -14 -18 -14 4 -8 12 3 22 9 22 14 0 12 -3 11 -26 -6z"/>
<path d="M1666 1273 c-6 -14 -5 -15 5 -6 7 7 10 15 7 18 -3 3 -9 -2 -12 -12z"/>
<path d="M1391 1254 c0 -11 3 -14 6 -6 3 7 2 16 -1 19 -3 4 -6 -2 -5 -13z"/>
<path d="M593 1240 c-3 -11 -9 -20 -13 -20 -4 0 -5 -12 -2 -26 3 -19 1 -25 -7
-20 -10 7 -13 3 -15 -26 -1 -7 -5 -16 -11 -20 -5 -4 0 -8 13 -8 13 0 21 4 18
9 -3 5 1 11 9 15 8 3 15 12 15 21 0 14 2 14 23 0 13 -8 27 -12 30 -8 4 3 7 1
7 -5 0 -7 -13 -12 -30 -12 -16 0 -30 -4 -30 -9 0 -5 10 -7 21 -4 20 5 21 3 17
-31 -3 -30 -1 -35 13 -31 23 8 44 -22 41 -56 -3 -25 0 -29 22 -29 20 0 26 5
26 23 0 13 5 28 12 35 9 9 9 12 0 12 -7 0 -12 -4 -12 -10 0 -5 -6 -10 -14 -10
-10 0 -13 9 -10 30 5 27 2 30 -20 30 -20 0 -26 5 -26 23 0 16 3 18 9 8 7 -12
12 -11 30 1 17 12 19 17 8 21 -8 3 -19 23 -25 44 -7 26 -10 31 -11 15 -1 -31
-24 -37 -56 -16 -21 14 -25 22 -20 45 7 32 -4 40 -12 9z m-6 -86 c-3 -3 -12
-4 -19 -1 -8 3 -5 6 6 6 11 1 17 -2 13 -5z"/>
<path d="M780 1252 c0 -5 -13 -7 -30 -4 -16 2 -31 0 -31 -4 -5 -30 -4 -64 1
-64 7 0 80 68 80 75 0 3 -4 5 -10 5 -5 0 -10 -4 -10 -8z"/>
<path d="M405 1240 c-3 -5 -1 -10 4 -10 6 0 11 5 11 10 0 6 -2 10 -4 10 -3 0
-8 -4 -11 -10z"/>
<path d="M668 1233 c7 -3 16 -2 19 1 4 3 -2 6 -13 5 -11 0 -14 -3 -6 -6z"/>
<path d="M1094 1205 c3 -13 24 -44 46 -67 l41 -43 -3 40 c-2 26 -8 39 -15 38
-15 -3 -53 32 -53 47 0 6 -5 10 -11 10 -7 0 -9 -10 -5 -25z"/>
<path d="M1205 1220 c3 -5 8 -10 11 -10 2 0 4 5 4 10 0 6 -5 10 -11 10 -5 0
-7 -4 -4 -10z"/>
<path d="M1529 1207 c-12 -16 -27 -22 -60 -22 -24 0 -53 -5 -64 -12 -12 -6
-28 -7 -40 -2 -25 10 -40 11 -32 2 15 -15 -16 -32 -46 -26 -28 6 -30 5 -19 -9
7 -9 24 -19 37 -22 16 -4 25 -13 25 -26 0 -22 10 -25 28 -10 9 7 9 7 3 -1 -6
-8 -5 -17 5 -26 8 -8 12 -18 9 -22 -9 -15 88 39 101 56 17 23 18 60 2 66 -7 3
1 6 19 6 21 1 37 9 47 23 30 42 15 66 -15 25z m-119 -87 c0 -5 -4 -10 -10 -10
-5 0 -10 5 -10 10 0 6 5 10 10 10 6 0 10 -4 10 -10z m50 -20 c0 -5 -5 -10 -11
-10 -5 0 -7 5 -4 10 3 6 8 10 11 10 2 0 4 -4 4 -10z"/>
<path d="M2308 1223 c6 -2 12 -11 12 -18 0 -8 9 -17 21 -20 14 -5 18 -12 13
-23 -4 -10 -14 -41 -22 -70 -17 -57 -8 -80 25 -68 15 6 15 8 3 16 -11 7 -12
12 -4 20 8 8 13 6 17 -9 3 -12 1 -24 -4 -27 -5 -3 -6 -10 -3 -16 5 -7 1 -9 -9
-5 -10 3 -17 2 -17 -4 0 -5 7 -12 15 -15 8 -4 15 -11 15 -16 0 -6 7 -16 16
-23 9 -6 18 -24 19 -39 2 -15 10 -38 19 -51 9 -13 16 -32 17 -42 0 -14 2 -13
9 5 5 12 14 22 21 22 7 0 9 9 5 24 -4 18 -1 25 15 29 17 4 19 10 13 29 -6 20
-5 21 10 9 20 -17 30 -9 31 27 0 21 5 26 19 24 14 -3 17 1 12 13 -3 9 -6 19
-6 21 0 2 -6 4 -14 4 -8 0 -32 27 -53 59 -61 95 -63 97 -69 84 -7 -16 -31 -17
-40 -1 -5 7 -7 25 -6 40 1 15 -2 28 -8 28 -5 0 -10 -9 -10 -20 0 -11 -3 -20
-8 -20 -4 0 -15 9 -25 20 -9 11 -22 20 -29 19 -10 0 -10 -2 0 -6z m156 -99 c3
-8 2 -12 -3 -9 -5 3 -12 -4 -16 -15 -8 -26 -25 -26 -25 1 0 11 5 17 10 14 6
-3 10 1 10 9 0 21 16 21 24 0z m-42 -87 l-22 -24 20 -18 c27 -25 52 -28 66 -9
14 17 54 27 54 13 0 -5 -8 -9 -17 -7 -11 2 -22 -6 -28 -19 -6 -16 -15 -21 -27
-17 -16 5 -17 2 -8 -22 8 -20 8 -29 -2 -35 -16 -10 -31 0 -24 17 3 7 -8 27
-25 45 -35 38 -36 43 -4 74 31 32 46 33 17 2z"/>
<path d="M280 1205 c0 -8 2 -15 4 -15 2 0 6 7 10 15 3 8 1 15 -4 15 -6 0 -10
-7 -10 -15z"/>
<path d="M781 1203 c0 -12 -11 -31 -23 -43 -12 -11 -16 -20 -9 -20 9 0 9 -3
-1 -14 -7 -7 -18 -12 -24 -9 -7 2 -15 0 -19 -6 -7 -13 15 -10 63 9 17 6 32 17
32 23 0 6 7 19 17 29 15 17 15 18 -5 18 -11 0 -23 8 -25 18 -4 13 -5 12 -6 -5z"/>
<path d="M1310 1200 c0 -5 7 -10 15 -10 8 0 15 5 15 10 0 6 -7 10 -15 10 -8 0
-15 -4 -15 -10z"/>
<path d="M2225 1183 c10 -15 25 -34 32 -41 7 -7 13 -19 13 -26 0 -7 10 -21 21
-32 l22 -19 -14 25 c-7 14 -13 41 -14 60 0 27 -4 35 -17 34 -10 -1 -16 3 -15
9 1 7 -9 13 -22 15 l-25 4 19 -29z"/>
<path d="M345 1188 c-3 -9 -5 -26 -3 -38 3 -19 4 -20 14 -3 6 10 8 27 4 38 -7
18 -9 18 -15 3z"/>
<path d="M838 1158 c-23 -47 -29 -78 -13 -78 18 0 35 -23 39 -56 2 -16 8 -41
14 -55 6 -15 7 -31 1 -40 -15 -24 -10 -46 11 -52 11 -3 20 0 20 5 0 6 6 5 15
-2 8 -7 15 -21 15 -31 0 -16 5 -18 28 -13 53 13 94 34 89 46 -4 14 -19 15 -82
4 -22 -3 -34 -3 -27 0 6 3 12 14 12 25 0 13 -7 19 -23 19 -22 0 -24 5 -25 47
0 29 -6 51 -15 57 -18 14 -18 28 1 42 10 7 13 18 8 30 -7 18 -8 18 -20 2 -21
-28 -26 -21 -22 32 1 28 0 50 -3 50 -4 0 -14 -15 -23 -32z"/>
<path d="M1580 1180 c0 -5 5 -10 11 -10 5 0 7 5 4 10 -3 6 -8 10 -11 10 -2 0
-4 -4 -4 -10z"/>
<path d="M457 1163 c-13 -12 -7 -33 8 -33 18 0 20 -16 3 -23 -10 -4 -9 -8 2
-16 20 -14 34 -9 38 14 3 10 0 15 -7 11 -6 -4 -11 0 -11 8 0 9 9 16 20 16 11
0 20 5 20 11 0 6 -9 9 -20 6 -11 -3 -20 -1 -20 4 0 10 -24 12 -33 2z"/>
<path d="M1675 1142 c-5 -4 -18 -22 -28 -40 -15 -26 -16 -36 -6 -48 6 -8 14
-12 17 -9 3 2 0 11 -7 19 -9 11 -9 17 2 28 14 13 40 58 35 58 -2 0 -7 -4 -13
-8z"/>
<path d="M1563 1128 c4 -12 1 -18 -8 -18 -8 0 -15 -7 -15 -15 0 -8 -4 -15 -10
-15 -5 0 -10 -7 -10 -15 0 -8 4 -15 10 -15 5 0 17 -12 25 -27 9 -16 13 -19 9
-8 -3 11 -7 25 -7 32 0 7 -4 10 -8 7 -15 -9 -18 14 -4 26 8 7 15 9 16 4 0 -5
5 2 10 15 7 17 6 28 -2 35 -9 8 -10 7 -6 -6z"/>
<path d="M1815 1131 c-3 -5 -1 -12 5 -16 5 -3 10 1 10 9 0 18 -6 21 -15 7z"/>
<path d="M250 1102 c0 -20 5 -28 18 -29 14 -1 19 6 20 28 0 22 -4 29 -19 29
-14 0 -19 -7 -19 -28z"/>
<path d="M1208 1119 c-2 -8 1 -25 9 -39 11 -22 13 -22 12 -5 0 11 -4 29 -8 39
-6 15 -9 16 -13 5z"/>
<path d="M2305 1120 c3 -5 11 -10 16 -10 6 0 7 5 4 10 -3 6 -11 10 -16 10 -6
0 -7 -4 -4 -10z"/>
<path d="M1773 1095 c7 -16 -16 -67 -28 -65 -9 2 -25 -20 -25 -34 0 -5 8 -2
18 7 10 10 22 14 25 11 4 -4 13 -1 22 6 17 14 20 56 5 65 -6 4 -8 11 -5 16 4
5 1 9 -5 9 -7 0 -10 -7 -7 -15z"/>
<path d="M2102 1090 c0 -14 2 -19 5 -12 2 6 2 18 0 25 -3 6 -5 1 -5 -13z"/>
<path d="M1947 1081 c3 -12 9 -21 14 -21 14 0 11 16 -5 29 -12 10 -13 8 -9 -8z"/>
<path d="M2150 1091 c0 -6 4 -13 10 -16 6 -3 7 1 4 9 -7 18 -14 21 -14 7z"/>
<path d="M750 1075 c0 -8 5 -15 10 -15 6 0 10 7 10 15 0 8 -4 15 -10 15 -5 0
-10 -7 -10 -15z"/>
<path d="M1699 1058 c-5 -10 -7 -18 -4 -18 3 0 15 8 26 18 16 15 16 19 4 19
-9 0 -20 -9 -26 -19z"/>
<path d="M585 1060 c3 -5 8 -10 11 -10 2 0 4 5 4 10 0 6 -5 10 -11 10 -5 0 -7
-4 -4 -10z"/>
<path d="M655 1031 c6 -19 -18 -36 -36 -25 -5 3 -8 0 -7 -8 2 -7 11 -16 21
-20 9 -4 17 -13 17 -20 0 -10 -2 -10 -9 1 -5 8 -16 11 -31 6 -18 -6 -21 -12
-16 -36 3 -16 1 -29 -4 -29 -6 0 -10 -4 -10 -10 0 -5 6 -10 13 -10 7 0 26 -13
42 -30 16 -16 35 -30 43 -30 14 0 14 6 -1 203 -1 15 -8 27 -15 27 -9 0 -11 -7
-7 -19z m-5 -123 c0 -5 -6 -8 -14 -8 -9 0 -12 7 -9 21 4 16 8 17 14 7 5 -7 9
-16 9 -20z"/>
<path d="M807 1042 c14 -9 26 -110 15 -126 -4 -6 -7 -33 -7 -60 0 -30 -5 -51
-12 -53 -9 -3 -11 4 -7 25 4 21 2 31 -10 35 -24 9 -29 -11 -12 -47 16 -33 57
-53 81 -38 5 3 22 5 37 3 29 -3 33 7 20 41 -6 16 -10 16 -35 3 -27 -14 -28
-14 -21 8 4 12 6 33 5 47 -4 39 -4 44 3 61 4 10 1 23 -8 32 -14 13 -22 37 -25
70 -1 4 -9 7 -18 7 -13 0 -14 -3 -6 -8z"/>
<path d="M1278 1020 c2 -17 8 -30 13 -30 14 0 11 36 -4 49 -11 8 -13 5 -9 -19z"/>
<path d="M2166 1031 c-4 -7 -5 -15 -2 -18 9 -9 19 4 14 18 -4 11 -6 11 -12 0z"/>
<path d="M2190 1034 c0 -17 18 -36 30 -32 7 2 4 10 -9 22 -12 11 -21 15 -21
10z"/>
<path d="M1480 1018 c0 -7 5 -20 10 -28 8 -12 10 -11 10 7 0 12 -4 25 -10 28
-5 3 -10 0 -10 -7z"/>
<path d="M1675 1021 c-3 -5 -2 -12 3 -15 5 -3 9 1 9 9 0 17 -3 19 -12 6z"/>
<path d="M1701 1013 c0 -12 -5 -25 -11 -28 -5 -3 -10 -11 -10 -16 0 -6 7 -3
16 5 8 9 13 26 11 38 -4 23 -4 23 -6 1z"/>
<path d="M757 1000 c3 -11 9 -23 14 -26 5 -3 6 -17 3 -31 -6 -20 -3 -24 11
-21 23 4 28 38 9 53 -9 6 -14 17 -12 25 2 8 -5 15 -14 17 -12 3 -15 -1 -11
-17z"/>
<path d="M1385 1000 c-3 -5 -12 -7 -20 -3 -9 3 -15 -1 -15 -11 0 -19 4 -20 29
-4 15 9 26 9 44 1 21 -10 25 -9 23 5 -3 18 -51 27 -61 12z"/>
<path d="M1990 1000 c0 -5 5 -10 11 -10 5 0 7 5 4 10 -3 6 -8 10 -11 10 -2 0
-4 -4 -4 -10z"/>
<path d="M1820 995 c0 -3 11 -16 23 -28 13 -12 27 -35 31 -50 6 -25 8 -26 22
-12 14 13 14 20 3 48 -7 18 -16 37 -21 42 -6 6 -7 3 -3 -7 5 -12 2 -18 -8 -18
-8 0 -17 7 -21 15 -5 14 -26 22 -26 10z"/>
<path d="M1746 977 c3 -10 9 -15 12 -12 3 3 0 11 -7 18 -10 9 -11 8 -5 -6z"/>
<path d="M2057 974 c5 -13 3 -15 -7 -9 -9 5 -11 4 -6 -3 4 -7 11 -12 17 -12
12 0 12 27 -1 35 -6 4 -7 -1 -3 -11z"/>
<path d="M2180 980 c11 -7 11 -10 2 -10 -10 0 -10 -3 0 -14 7 -8 17 -11 21 -7
12 12 -3 41 -22 41 -14 0 -14 -2 -1 -10z"/>
<path d="M2240 964 c0 -8 5 -12 10 -9 6 3 10 10 10 16 0 5 -4 9 -10 9 -5 0
-10 -7 -10 -16z"/>
<path d="M704 946 c-9 -36 -1 -81 15 -81 8 0 20 20 27 45 18 59 18 60 -11 60
-18 0 -26 -7 -31 -24z"/>
<path d="M1794 958 c-4 -7 -4 -10 1 -6 4 4 13 3 20 -2 8 -7 12 -5 12 5 0 18
-23 20 -33 3z"/>
<path d="M1721 941 c-13 -9 -9 -33 21 -111 10 -24 10 -24 24 -5 12 17 13 21 1
23 -20 4 -46 67 -35 86 10 18 9 19 -11 7z"/>
<path d="M1346 927 c3 -10 9 -15 12 -12 3 3 0 11 -7 18 -10 9 -11 8 -5 -6z"/>
<path d="M2230 931 c0 -5 7 -11 15 -15 8 -3 15 -1 15 3 0 5 -7 11 -15 15 -8 3
-15 1 -15 -3z"/>
<path d="M1070 890 c0 -13 7 -20 20 -20 13 0 20 7 20 20 0 13 -7 20 -20 20
-13 0 -20 -7 -20 -20z m30 6 c0 -3 -4 -8 -10 -11 -5 -3 -10 -1 -10 4 0 6 5 11
10 11 6 0 10 -2 10 -4z"/>
<path d="M2050 900 c0 -5 4 -10 9 -10 5 0 13 -9 16 -20 3 -11 11 -20 16 -20 6
0 8 4 4 9 -3 6 2 14 11 19 10 6 14 14 9 22 -6 9 -9 9 -16 -1 -6 -11 -11 -11
-21 -1 -15 15 -28 16 -28 2z"/>
<path d="M1563 861 c0 -27 3 -38 8 -29 7 10 9 9 9 -5 0 -10 4 -16 10 -12 5 3
7 12 4 20 -4 8 1 18 10 21 9 3 13 10 10 15 -3 5 -10 7 -15 3 -6 -3 -16 2 -23
12 -12 15 -13 12 -13 -25z"/>
<path d="M1523 863 c-9 -25 -26 -34 -35 -20 -6 9 -8 9 -8 0 0 -7 -9 -13 -20
-13 -11 0 -20 -5 -20 -11 0 -5 5 -7 11 -4 6 4 13 -2 16 -14 8 -30 63 -25 63 6
0 8 4 12 9 8 6 -3 6 6 1 24 -4 16 -6 32 -2 35 3 3 2 6 -2 6 -3 0 -10 -8 -13
-17z"/>
<path d="M1871 864 c0 -11 3 -14 6 -6 3 7 2 16 -1 19 -3 4 -6 -2 -5 -13z"/>
<path d="M1990 866 c0 -8 4 -17 9 -20 5 -4 7 3 4 14 -6 23 -13 26 -13 6z"/>
<path d="M1910 859 c0 -5 5 -7 10 -4 6 3 10 8 10 11 0 2 -4 4 -10 4 -5 0 -10
-5 -10 -11z"/>
<path d="M1448 843 c7 -3 16 -2 19 1 4 3 -2 6 -13 5 -11 0 -14 -3 -6 -6z"/>
<path d="M2485 820 c3 -5 11 -10 16 -10 6 0 7 5 4 10 -3 6 -11 10 -16 10 -6 0
-7 -4 -4 -10z"/>
<path d="M515 801 c-3 -6 -14 -11 -24 -11 -12 0 -20 -9 -23 -25 -4 -21 -3 -23
13 -14 15 7 17 6 13 -6 -8 -21 3 -19 28 5 12 11 24 17 27 14 3 -4 0 -9 -6 -11
-19 -7 -16 -20 7 -26 31 -8 31 5 0 46 -16 22 -31 34 -35 28z"/>
<path d="M1218 803 c7 -3 16 -2 19 1 4 3 -2 6 -13 5 -11 0 -14 -3 -6 -6z"/>
<path d="M638 793 c7 -3 16 -2 19 1 4 3 -2 6 -13 5 -11 0 -14 -3 -6 -6z"/>
<path d="M930 788 c0 -7 4 -19 9 -27 12 -19 51 -4 51 20 0 14 -7 19 -30 19
-17 0 -30 -5 -30 -12z"/>
<path d="M1761 784 c0 -11 3 -14 6 -6 3 7 2 16 -1 19 -3 4 -6 -2 -5 -13z"/>
<path d="M1283 750 c-28 -48 -30 -71 -3 -40 11 13 20 29 20 37 0 7 5 13 10 13
6 0 10 7 10 15 0 26 -14 16 -37 -25z"/>
<path d="M1432 778 c-14 -18 -26 -78 -15 -78 5 0 10 11 11 26 1 14 7 34 12 45
12 21 8 25 -8 7z"/>
<path d="M1964 780 c-16 -16 -5 -52 14 -48 21 4 25 20 10 41 -10 13 -16 15
-24 7z"/>
<path d="M1611 764 c0 -11 3 -14 6 -6 3 7 2 16 -1 19 -3 4 -6 -2 -5 -13z"/>
<path d="M1172 751 c-6 -4 -1 -11 14 -18 27 -12 31 -8 11 12 -8 7 -19 10 -25
6z"/>
<path d="M1507 743 c-4 -3 -7 -18 -6 -32 l1 -26 8 25 c8 25 8 25 9 -4 1 -19 5
-26 10 -20 5 5 7 21 4 37 -5 27 -13 33 -26 20z"/>
<path d="M930 720 c-8 -5 -12 -11 -9 -14 2 -3 11 -1 19 4 8 5 12 11 9 14 -2 3
-11 1 -19 -4z"/>
<path d="M1800 721 c0 -6 -8 -11 -17 -12 -14 0 -13 -2 5 -9 19 -8 26 -20 24
-41 -1 -4 8 -4 20 -1 19 5 19 6 4 17 -9 7 -16 19 -16 28 0 9 -4 19 -10 22 -5
3 -10 1 -10 -4z"/>
<path d="M827 698 c-19 -20 -17 -35 2 -23 14 8 34 45 24 44 -4 0 -16 -10 -26
-21z"/>
<path d="M1654 711 c4 -5 0 -12 -6 -14 -8 -3 -6 -6 5 -6 9 -1 17 6 17 14 0 8
-5 15 -11 15 -5 0 -8 -4 -5 -9z"/>
<path d="M1711 704 c0 -11 3 -14 6 -6 3 7 2 16 -1 19 -3 4 -6 -2 -5 -13z"/>
<path d="M1915 710 c3 -5 8 -10 11 -10 2 0 4 5 4 10 0 6 -5 10 -11 10 -5 0 -7
-4 -4 -10z"/>
<path d="M610 680 c-11 -11 -30 -20 -42 -20 -22 0 -22 -1 5 -24 15 -13 27 -28
27 -35 0 -17 21 -13 36 7 8 10 13 12 14 5 0 -7 5 -13 11 -13 16 0 1 51 -19 67
-15 11 -15 14 -2 23 10 6 11 10 3 10 -7 0 -22 -9 -33 -20z"/>
<path d="M1462 680 c0 -14 2 -19 5 -12 2 6 2 18 0 25 -3 6 -5 1 -5 -13z"/>
<path d="M1085 680 c-3 -5 -2 -10 4 -10 5 0 13 5 16 10 3 6 2 10 -4 10 -5 0
-13 -4 -16 -10z"/>
<path d="M1581 674 c0 -11 3 -14 6 -6 3 7 2 16 -1 19 -3 4 -6 -2 -5 -13z"/>
<path d="M840 659 c0 -5 5 -7 10 -4 6 3 10 8 10 11 0 2 -4 4 -10 4 -5 0 -10
-5 -10 -11z"/>
<path d="M1400 643 c0 -16 -3 -38 -6 -50 -10 -35 15 -28 30 8 15 36 10 69 -10
69 -9 0 -14 -11 -14 -27z"/>
<path d="M1665 660 c3 -5 8 -10 11 -10 2 0 4 5 4 10 0 6 -5 10 -11 10 -5 0 -7
-4 -4 -10z"/>
<path d="M477 653 c-12 -11 -8 -45 5 -37 6 4 17 -1 24 -11 15 -20 44 -14 44 9
0 31 -53 60 -73 39z"/>
<path d="M1117 653 c-3 -4 6 -16 18 -26 17 -12 26 -14 31 -5 4 6 3 8 -4 4 -6
-3 -17 3 -25 15 -8 11 -17 17 -20 12z"/>
<path d="M1237 643 c-9 -11 -13 -28 -10 -45 3 -15 2 -36 -3 -45 -4 -10 -8 -22
-8 -28 -2 -12 -37 -7 -51 7 -7 7 -3 9 13 5 18 -4 22 -2 18 9 -3 9 -1 25 6 37
10 20 10 21 -5 8 -10 -7 -17 -20 -17 -29 0 -12 -6 -10 -27 9 -25 21 -26 21 -9
2 15 -18 16 -26 7 -37 -20 -24 7 -59 39 -50 14 3 31 7 38 8 7 1 18 8 25 15 9
9 9 13 -1 20 -10 6 -11 13 -1 34 15 33 29 35 23 5 -4 -21 -4 -22 5 -3 12 26
13 48 2 41 -5 -4 -12 0 -14 6 -4 10 -6 10 -6 1 -1 -7 -5 -13 -11 -13 -11 0 -9
28 3 48 12 18 3 15 -16 -5z m-62 -141 c-3 -3 -11 0 -18 7 -9 10 -8 11 6 5 10
-3 15 -9 12 -12z"/>
<path d="M1525 650 c3 -5 8 -10 11 -10 2 0 4 5 4 10 0 6 -5 10 -11 10 -5 0 -7
-4 -4 -10z"/>
<path d="M1640 654 c0 -17 18 -36 30 -32 7 2 4 10 -9 22 -12 11 -21 15 -21 10z"/>
<path d="M778 633 c7 -3 16 -2 19 1 4 3 -2 6 -13 5 -11 0 -14 -3 -6 -6z"/>
<path d="M1787 625 c-4 -8 3 -38 14 -67 10 -29 17 -41 14 -26 -5 29 29 83 47
72 4 -3 8 2 8 10 0 17 -20 17 -32 1 -5 -6 -8 -5 -8 3 0 7 -4 10 -10 7 -5 -3
-10 -1 -10 4 0 16 -17 13 -23 -4z"/>
<path d="M818 602 c-3 -12 -2 -20 3 -16 5 3 9 0 9 -7 0 -9 3 -9 14 0 11 10 16
9 24 -5 8 -15 10 -15 16 2 9 25 -7 38 -32 25 -17 -9 -21 -8 -24 7 -3 14 -5 13
-10 -6z"/>
<path d="M1505 602 c-9 -9 -5 -32 6 -32 5 0 7 6 3 13 -4 6 2 4 13 -5 26 -24
35 -23 31 4 -3 20 -39 33 -53 20z"/>
<path d="M1672 592 c-15 -10 -5 -42 13 -42 15 0 24 19 17 38 -5 14 -12 15 -30
4z"/>
<path d="M887 553 c-4 -3 -7 -13 -7 -21 0 -13 3 -12 19 2 18 17 20 17 29 -1 6
-10 13 -15 17 -12 8 9 -23 39 -39 39 -7 0 -16 -3 -19 -7z"/>
<path d="M971 546 c-8 -9 -8 -16 -2 -20 6 -4 15 3 21 14 12 23 -2 27 -19 6z"/>
<path d="M1855 540 c-3 -5 -1 -10 4 -10 6 0 11 5 11 10 0 6 -2 10 -4 10 -3 0
-8 -4 -11 -10z"/>
<path d="M1388 533 c7 -3 16 -2 19 1 4 3 -2 6 -13 5 -11 0 -14 -3 -6 -6z"/>
<path d="M1550 511 c0 -15 6 -21 21 -21 25 0 22 33 -4 38 -12 2 -17 -3 -17
-17z"/>
<path d="M996 508 c3 -4 9 -8 15 -8 5 0 9 4 9 8 0 5 -7 9 -15 9 -8 0 -12 -4
-9 -9z"/>
<path d="M1110 494 c0 -8 5 -12 10 -9 6 3 10 10 10 16 0 5 -4 9 -10 9 -5 0
-10 -7 -10 -16z"/>
<path d="M227 266 c-8 -20 4 -28 21 -13 13 9 14 9 8 0 -4 -7 -3 -13 2 -13 16
0 22 13 11 27 -15 17 -35 17 -42 -1z"/>
<path d="M733 290 c0 -40 3 -49 16 -47 43 7 57 52 24 78 -14 12 -16 12 -9 -1
4 -9 1 -8 -7 3 -21 26 -24 22 -24 -33z"/>
<path d="M1752 289 c2 -31 8 -43 20 -45 24 -3 40 20 36 53 -2 22 -9 29 -31 31
-27 3 -28 2 -25 -39z"/>
<path d="M385 290 c-3 -5 3 -10 15 -10 12 0 18 5 15 10 -3 6 -10 10 -15 10 -5
0 -12 -4 -15 -10z"/>
<path d="M470 290 c0 -5 9 -10 21 -10 11 0 17 5 14 10 -3 6 -13 10 -21 10 -8
0 -14 -4 -14 -10z"/>
<path d="M580 285 c-16 -19 -5 -47 17 -43 11 2 18 12 18 27 0 29 -17 37 -35
16z"/>
<path d="M860 290 c-12 -8 -10 -10 8 -10 13 0 20 4 17 10 -7 12 -6 12 -25 0z"/>
<path d="M955 290 c-4 -6 -1 -18 7 -27 11 -14 11 -16 -1 -8 -10 5 -12 4 -7 -3
10 -16 31 -15 45 2 9 11 8 18 -4 30 -19 19 -31 20 -40 6z"/>
<path d="M1271 286 c-15 -18 -3 -47 18 -44 15 3 31 17 31 28 0 3 -9 11 -19 17
-15 10 -22 9 -30 -1z"/>
<path d="M1490 285 c-16 -19 -6 -45 19 -45 23 0 35 28 20 46 -15 18 -24 18
-39 -1z"/>
<path d="M1920 285 c-10 -12 -10 -19 -2 -27 30 -30 68 -4 42 27 -16 19 -24 19
-40 0z"/>
<path d="M2030 285 c-14 -17 -7 -45 11 -45 8 0 7 5 -2 18 -13 16 -13 16 7 -1
21 -17 34 -14 34 9 0 22 -36 36 -50 19z"/>
<path d="M2060 220 c-9 -6 -10 -10 -3 -10 6 0 15 5 18 10 8 12 4 12 -15 0z"/>
<path d="M2244 286 c-9 -24 4 -48 23 -44 12 2 18 12 18 28 0 29 -32 41 -41 16z"/>
<path d="M2350 290 c0 -5 7 -10 16 -10 8 0 12 5 9 10 -3 6 -10 10 -16 10 -5 0
-9 -4 -9 -10z"/>
</g>
</svg>
